<svg width="82" height="82" viewBox="0 0 82 82" fill="none" xmlns="http://www.w3.org/2000/svg">
<path d="M27.087 66.5L41 62L47.9565 65L56.0725 66.5L68.2464 66L63.029 62L52.5942 61L67.087 56.5L81 47L70.5652 50L58.971 52L70.5652 37.5L76.942 24L60.7101 34L46.7971 48.5L47.3768 42L47.9565 30.5L46.2174 18L41 1L35.7826 19L34.0435 37.5L35.7826 50L24.7681 37.5L15.4928 30.5L5.05797 24L9.69565 34L15.4928 44L24.7681 52L15.4928 50L1 47L15.4928 56.5L28.8261 61L20.7101 62L13.1739 65L27.087 66.5Z" fill="black"/>
<path d="M41 81L39.2609 70L41 62M41 62L27.087 66.5L13.1739 65L20.7101 62L28.8261 61L15.4928 56.5L1 47L15.4928 50L24.7681 52L15.4928 44L9.69565 34L5.05797 24L15.4928 30.5L24.7681 37.5L35.7826 50L34.0435 37.5L35.7826 19L41 1L46.2174 18L47.9565 30.5L47.3768 42L46.7971 48.5L60.7101 34L76.942 24L70.5652 37.5L58.971 52L70.5652 50L81 47L67.087 56.5L52.5942 61L63.029 62L68.2464 66L56.0725 66.5L47.9565 65L41 62Z" stroke="black" stroke-linecap="round" stroke-linejoin="round"/>
</svg>
