<svg width="81" height="80" viewBox="0 0 81 80" fill="none" xmlns="http://www.w3.org/2000/svg">
<path d="M35.1723 18.6797C33.8751 22.4516 33.2075 28.4294 29.6991 30.4751C22.881 34.4508 21.4039 23.7286 20.8839 18.3511C20.1677 25.4564 13.9796 26.1608 10.3353 30.374C2.84049 39.0402 6.19849 56.2699 11.854 64.7429C16.8721 72.2612 24.4364 77.8483 32.5668 80C27.8915 77.6406 24.3678 73.3686 22.8713 67.0908C21.7977 62.5867 21.8666 57.1141 24.0357 53.0894C26.2005 49.0717 29.9516 46.3438 32.075 42.6041C31.0572 46.5451 33.1727 48.8743 35.2754 51.7889C38.7161 49.3284 40.2511 41.9603 40.5829 37.79C41.2774 41.4559 43.4284 44.5886 44.6799 48.0334C45.4311 50.1014 45.818 53.3796 47.8499 54.5019C51.7984 56.6816 52.6537 50.8019 52.9554 47.8528C53.3698 51.7496 56.9537 52.1358 59.0645 54.4462C63.405 59.1979 61.4601 68.6464 58.1849 73.2934C56.813 75.2389 55.1126 76.9477 53.205 78.3353C62.7067 74.4354 69.9449 66.2085 72.828 53.4323C74.6819 45.2187 74.5632 35.239 70.818 27.8998C67.0797 20.5734 60.6021 15.5991 56.9361 8.77914C58.6933 15.9661 55.0412 20.2134 51.4103 25.5288C45.4694 21.0415 42.8187 7.60478 42.2467 -3.17891e-07C41.0468 6.68532 37.3327 12.3976 35.1723 18.6797Z" fill="black"/>
<path d="M0 80V78.3353H2V80H0Z" fill="black"/>
<path d="M80.5 78.3353V80L78.5 80V78.3353H80.5Z" fill="black"/>
<path d="M0 -3.17891e-07V2H2V-3.17891e-07H0Z" fill="black"/>
<path d="M80.5 -3.17891e-07H78.5V2H80.5V-3.17891e-07Z" fill="black"/>
</svg>
