<svg width="80" height="81" viewBox="0 0 80 81" fill="none" xmlns="http://www.w3.org/2000/svg">
<path fill-rule="evenodd" clip-rule="evenodd" d="M39.7851 0.521353C39.9103 0.495349 40.0395 0.495349 40.1647 0.521353L55.656 3.73893C55.9178 3.7933 56.1437 3.95733 56.2764 4.18942L63.7444 17.2483C63.8487 17.4306 63.8884 17.6428 63.8572 17.8505L61.6362 32.6131C61.5713 33.0446 61.8167 33.462 62.1864 33.6936C62.9067 34.1449 63.8569 35.0283 63.0619 36.2622C62.0798 37.7857 61.3829 39.3482 61.1685 39.85C61.1215 39.9598 61.0564 40.0598 60.9734 40.1457L52.3744 49.0583C52.2147 49.2238 52.1217 49.4425 52.1133 49.6724L52.0419 51.6362C52.0272 52.0406 51.7536 52.3894 51.3645 52.5L49.2402 53.1041C48.7758 53.2362 48.2989 52.9381 48.2142 52.4627V52.4627C48.1302 51.9913 47.6601 51.6933 47.198 51.8185L46.6116 51.9773C46.2372 52.0787 45.9646 52.401 45.9267 52.7871L45.8613 53.4537C45.8315 53.7575 45.6556 54.0278 45.3828 54.1649C44.7226 54.497 43.4505 55.0774 42.6248 55.0774C42.0159 55.0774 41.7272 54.4761 41.5955 53.8815C41.467 53.3013 40.9423 52.7345 40.348 52.7345H39.9749H39.6019C39.0076 52.7345 38.4829 53.3012 38.3545 53.8815C38.223 54.4761 37.9345 55.0774 37.3264 55.0774C36.5007 55.0774 35.2283 54.4972 34.5676 54.1651C34.2946 54.0278 34.1184 53.7573 34.0888 53.4531L34.024 52.7876C33.9864 52.4013 33.7137 52.0786 33.3391 51.9772L32.7533 51.8185C32.291 51.6933 31.8207 51.9912 31.7363 52.4627V52.4627C31.6513 52.9382 31.1742 53.2362 30.7095 53.1041L28.5857 52.5001C28.1964 52.3894 27.9228 52.0404 27.9083 51.6359L27.8377 49.6726C27.8294 49.4426 27.7364 49.2237 27.5766 49.0581L18.9767 40.146C18.8936 40.0599 18.8283 39.9597 18.7814 39.8496C18.567 39.3475 17.8712 37.7854 16.8892 36.2622C16.0934 35.0283 17.0433 34.1449 17.7635 33.6936C18.1332 33.462 18.3786 33.0446 18.3137 32.6132L16.0939 17.8504C16.0627 17.6427 16.1024 17.4306 16.2067 17.2483L23.6735 4.18947C23.8062 3.95735 24.0321 3.7933 24.2939 3.73892L39.7851 0.521353ZM39.096 36.1878C39.5007 35.5763 40.4495 35.5761 40.8544 36.1875C41.3068 36.8709 41.8694 37.6346 42.3808 38.0827C43.4178 38.9932 43.1382 41.5873 40.3837 40.5287C40.1224 40.4284 39.8274 40.4284 39.5662 40.5288C36.8128 41.5872 36.5322 38.9932 37.5703 38.0827C38.0817 37.6347 38.6439 36.8711 39.096 36.1878ZM44.7653 30.6092C44.459 30.0356 44.8182 29.3325 45.4625 29.2446L57.8122 27.5609C58.3909 27.482 58.8991 27.948 58.8705 28.5313L58.6609 32.8119C58.651 33.0145 58.5753 33.2084 58.4454 33.3641L56.4718 35.73C56.2555 35.9892 55.9161 36.1115 55.5842 36.0496L47.2382 34.4952C46.9594 34.4433 46.7194 34.2675 46.5858 34.0174L44.7653 30.6092ZM35.1846 30.6092C35.4909 30.0356 35.1316 29.3325 34.4874 29.2446L22.1379 27.5609C21.5591 27.482 21.0509 27.9481 21.0796 28.5316L21.2902 32.8121C21.3002 33.0146 21.3758 33.2083 21.5056 33.364L23.4781 35.7297C23.6944 35.9891 24.0338 36.1114 24.3658 36.0496L32.7117 34.4952C32.9904 34.4433 33.2305 34.2675 33.364 34.0174L35.1846 30.6092ZM74.1208 70.641C74.1977 72.2227 70.2078 72.8095 69.9429 74.3421C69.9245 74.4486 69.9102 74.5561 69.8827 74.6606C69.7758 75.066 69.5686 76.1894 70.218 77.1553C71.0268 78.3574 69.8585 81.151 66.2073 79.4879C62.5574 77.8248 61.6305 73.0687 54.0084 70.3384C51.2603 69.3547 45.957 67.3784 40.3034 65.2558C40.0918 65.1764 39.8581 65.1764 39.6465 65.2558C33.9941 67.3784 28.6909 69.3547 25.9415 70.3384C18.3194 73.0687 17.3937 77.8248 13.7425 79.4879C10.0926 81.151 8.92179 78.3574 9.73188 77.1553C10.3818 76.1886 10.1746 75.0641 10.0681 74.6596C10.0408 74.5558 10.0265 74.449 10.0082 74.3432C9.74293 72.8097 5.75338 72.2231 5.83033 70.641C5.90993 69.0055 9.66255 68.751 14.0147 68.9289C18.35 69.107 24.3363 66.8469 24.3826 66.8294C24.3841 66.8289 24.3818 66.8297 24.3833 66.8292C24.4228 66.8144 27.6264 65.6191 32.1352 63.9285C32.9418 63.6261 32.9436 62.4849 32.1376 62.1807C25.5082 59.6788 19.9122 57.5541 19.2375 57.2979C19.19 57.2798 19.147 57.2674 19.0972 57.2576C18.4921 57.1375 14.205 56.3038 11.0388 56.1445C7.62511 55.9718 4.80841 53.9192 6.18724 52.0374C6.27709 51.9149 6.36716 51.8043 6.45706 51.7046C6.79235 51.3329 7.84014 48.9929 8.0077 48.5211V48.5211C8.34534 47.5695 9.35957 46.1619 12.3329 47.5541C15.3062 48.9474 14.2381 50.9529 19.0358 52.9696C21.4865 53.9993 30.9624 57.5918 39.6468 60.861C39.8587 60.9407 40.0912 60.9407 40.3031 60.861C48.9887 57.5919 58.4634 53.9993 60.9141 52.9696C65.7105 50.9529 64.6436 48.9474 67.6183 47.5541C70.5903 46.1619 71.6045 47.5695 71.9422 48.5211V48.5211C72.1103 48.9926 73.1585 51.3332 73.4935 51.7052C73.5832 51.8047 73.673 51.9151 73.7626 52.0374C75.1428 53.9192 72.3248 55.9718 68.9111 56.1445C65.746 56.3038 61.4589 57.1375 60.854 57.2576C60.8042 57.2674 60.7612 57.2798 60.7137 57.2978C60.0391 57.554 54.4423 59.6787 47.8117 62.1806C47.0057 62.4847 47.0074 63.6261 47.8142 63.9285C52.3247 65.6191 55.5283 66.8144 55.5679 66.8292C55.5693 66.8297 55.5671 66.8289 55.5685 66.8294C55.6149 66.8469 61.6011 69.107 65.9352 68.9289C70.286 68.751 74.0399 69.0055 74.1208 70.641Z" fill="#231F20"/>
<path d="M8.14515 0.48193C8.05699 0.48193 7.97229 0.516232 7.90897 0.577577L0.601938 7.65685C0.382887 7.86908 0.533125 8.24006 0.838119 8.24006V8.24006C0.92628 8.24006 1.01098 8.20576 1.0743 8.14441L8.38133 1.06514C8.60039 0.852914 8.45015 0.48193 8.14515 0.48193V0.48193Z" fill="#231F20"/>
<path d="M0.837046 0.48193C0.532062 0.48193 0.38184 0.852912 0.600898 1.06511L7.90898 8.14444C7.97229 8.20577 8.05698 8.24006 8.14513 8.24006V8.24006C8.45011 8.24006 8.60034 7.86908 8.38128 7.65688L1.07319 0.577554C1.00988 0.516224 0.925193 0.48193 0.837046 0.48193V0.48193Z" fill="#231F20"/>
<path d="M79.0244 79.4878C79.0244 79.2184 79.2428 79 79.5122 79V79C79.7816 79 80 79.2184 80 79.4878V79.9941C80 80.2635 79.7816 80.4819 79.5122 80.4819V80.4819C79.2428 80.4819 79.0244 80.2635 79.0244 79.9941V79.4878Z" fill="#231F20"/>
</svg>
