<svg width="80" height="80" viewBox="0 0 80 80" fill="none" xmlns="http://www.w3.org/2000/svg">
<path d="M28.3605 18.6797C27.0993 22.4516 26.4503 28.4294 23.0396 30.4751C16.4112 34.4508 14.9752 23.7286 14.4696 18.3511C13.7734 25.4564 7.75753 26.1608 4.21463 30.374C-3.07158 39.0402 0.192967 56.2699 5.69112 64.7429C10.5695 72.2612 17.9233 77.8483 25.8275 80C21.2823 77.6406 17.8566 73.3686 16.4018 67.0908C15.358 62.5867 15.425 57.1141 17.5338 53.0894C19.6383 49.0717 23.285 46.3438 25.3493 42.6041C24.3598 46.5451 26.4165 48.8743 28.4606 51.7889C31.8056 49.3284 33.2979 41.9603 33.6204 37.79C34.2956 41.4559 36.3867 44.5886 37.6034 48.0334C38.3338 50.1014 38.7099 53.3796 40.6852 54.5019C44.5239 56.6816 45.3553 50.8019 45.6486 47.8528C46.0515 51.7496 49.5356 52.1358 51.5877 54.4462C55.8074 59.1979 53.9167 68.6464 50.7325 73.2934C49.3989 75.2389 47.7458 76.9477 45.8913 78.3353C55.1285 74.4354 62.1653 66.2085 64.9681 53.4323C66.7705 45.2187 66.655 35.239 63.0141 27.8998C59.3798 20.5734 53.0825 15.5991 49.5186 8.77914C51.2268 15.9661 47.6763 20.2134 44.1465 25.5288C38.3709 21.0415 35.7941 7.60478 35.2379 -2.70431e-06C34.0715 6.68532 30.4607 12.3976 28.3605 18.6797Z" fill="black"/>
</svg>
