<svg width="80" height="80" viewBox="0 0 80 80" fill="none" xmlns="http://www.w3.org/2000/svg">
<path d="M40 78.6667C61.3553 78.6667 78.6667 61.3553 78.6667 40C78.6667 18.6447 61.3553 1.33333 40 1.33333C18.6458 1.33333 1.33333 18.6448 1.33333 40C1.33333 61.3552 18.6458 78.6667 40 78.6667Z" stroke="black" stroke-width="2"/>
<path d="M52.6027 67.8775C49.1399 67.8775 45.7148 66.9562 42.697 65.215C41.8458 64.7236 41.0228 64.163 40.2494 63.5495L39.9999 63.3507L39.7504 63.5495C38.9759 64.1641 38.1529 64.7236 37.3028 65.215C34.2861 66.9562 30.861 67.8775 27.3971 67.8775C22.084 67.8775 17.0776 65.7788 13.3998 62.1259C15.9316 64.1565 19.118 65.3036 22.4426 65.3036H22.4437C24.9614 65.3036 27.45 64.635 29.6416 63.3691C36.0931 59.6448 38.6335 51.572 35.5336 44.8516L37.0317 43.9864C37.8343 44.7327 38.8982 45.1551 39.9999 45.1551C41.1459 45.1551 42.455 44.4606 42.954 43.9993L44.4586 44.8667C41.3706 51.5839 43.9153 59.6492 50.3582 63.3691C52.5498 64.635 55.0395 65.3036 57.5561 65.3036C60.8807 65.3036 64.0682 64.1554 66.6 62.1248C62.9222 65.7788 57.9169 67.8775 52.6027 67.8775Z" fill="#231F20"/>
<path d="M33.1847 57.3483C26.4437 54.5746 22.107 48.1155 22.107 40.7998C22.107 39.9779 22.1642 39.1483 22.2777 38.3296C22.3241 38.3285 22.3705 38.3285 22.417 38.3285C23.765 38.3285 25.0978 38.5456 26.3832 38.9755C26.3033 39.5793 26.2622 40.1917 26.2622 40.7998C26.2622 46.3949 29.5652 51.3364 34.7055 53.4793C34.658 53.6997 34.6061 53.9168 34.55 54.1263C34.2454 55.2626 33.7863 56.346 33.1847 57.3483Z" fill="#231F20"/>
<path d="M46.8207 57.3461C46.1024 56.1472 45.5915 54.8489 45.301 53.4771C50.437 51.332 53.7378 46.3927 53.7378 40.7998C53.7378 40.1917 53.6967 39.5804 53.6157 38.9755C54.9011 38.5456 56.235 38.3285 57.583 38.3285C57.6295 38.3285 57.6759 38.3285 57.7223 38.3296C57.8358 39.1461 57.893 39.9757 57.893 40.7998C57.893 48.1133 53.5585 54.5713 46.8207 57.3461Z" fill="#231F20"/>
<path d="M71.8095 53.1338C72.6963 47.3908 70.0176 41.4102 64.7811 38.3869C62.5896 37.1221 60.101 36.4525 57.5832 36.4525C52.8361 36.4525 48.4379 38.752 45.743 42.6221L44.246 41.7591C44.3194 41.4404 44.355 41.1196 44.355 40.7999C44.355 38.8676 43.1118 37.201 41.2929 36.6404V34.8604C48.6863 34.2026 54.4228 27.9638 54.4228 20.4948C54.4228 14.417 50.7364 9.21729 45.3725 7.0927C53.7553 9.44735 59.8515 17.1713 59.8515 26.2075C59.8515 27.1753 59.7802 28.1539 59.6398 29.1141L59.5933 29.4295L59.8893 29.5462C60.802 29.9059 61.6963 30.3379 62.5485 30.8304C70.4464 35.3896 74.0777 44.6376 71.8095 53.1338Z" fill="#231F20"/>
<path d="M8.19032 53.1331C5.921 44.6369 9.55343 35.39 17.4513 30.8297C18.3035 30.3372 19.1978 29.9062 20.1105 29.5465L20.4065 29.4299L20.36 29.1134C20.2196 28.1532 20.1483 27.1757 20.1483 26.2068C20.1483 17.1705 26.2445 9.4477 34.6273 7.09304C29.2634 9.21655 25.577 14.4173 25.577 20.4951C25.577 27.9642 31.3135 34.2029 38.7069 34.8596V36.6407C36.888 37.2013 35.6448 38.8679 35.6448 40.7992C35.6448 41.1167 35.6793 41.4332 35.7474 41.7421L34.2471 42.6073C31.55 38.7459 27.1572 36.4528 22.4166 36.4528C19.8999 36.4528 17.4102 37.1214 15.2187 38.3873C9.98224 41.4105 7.30355 47.3901 8.19032 53.1331Z" fill="#231F20"/>
<path d="M48.326 29.8735C45.9184 28.033 43.0474 27.063 39.9993 27.063C36.9523 27.063 34.0814 28.033 31.6738 29.8735C30.6261 28.9435 29.7501 27.8569 29.0632 26.6396C32.2171 24.1964 35.991 22.9078 39.9993 22.9078C44.0087 22.9078 47.7827 24.1964 50.9366 26.6396C50.2507 27.8569 49.3737 28.9424 48.326 29.8735Z" fill="#231F20"/>
</svg>
