<svg width="80" height="80" viewBox="0 0 80 80" fill="none" xmlns="http://www.w3.org/2000/svg">
<path fill-rule="evenodd" clip-rule="evenodd" d="M40.7294 79C85.0188 62.4588 97.2197 -31.7638 42.9788 14.0133C41.7521 15.0485 39.7398 15.0193 38.5465 13.949C-13.8789 -33.0719 -9.78411 61.7984 40.7294 79ZM40.7294 79C7.60452 67.7199 10.0969 17.4425 39.4213 40.8707C40.1682 41.4675 41.309 41.4847 42.0729 40.9098C73.3229 17.3933 70.3333 67.9435 40.7294 79Z" fill="black"/>
<path d="M40.7294 79C70.3333 67.9435 73.3229 17.3933 42.0729 40.9098C41.309 41.4847 40.1682 41.4675 39.4213 40.8707C10.0969 17.4425 7.60452 67.7199 40.7294 79ZM40.7294 79C85.0188 62.4588 97.2197 -31.7638 42.9788 14.0133M40.7294 79C-9.78411 61.7984 -13.8789 -33.0719 38.5465 13.949M42.9788 14.0133C41.7521 15.0485 39.7398 15.0193 38.5465 13.949M42.9788 14.0133C42.69 14.257 42.3994 14.5047 42.1068 14.7564C41.3221 15.4315 40.154 15.4127 39.3904 14.7138C39.1075 14.4548 38.8262 14.1999 38.5465 13.949" stroke="black" stroke-linejoin="round"/>
</svg>
