<svg width="80" height="80" viewBox="0 0 80 41" fill="none" xmlns="http://www.w3.org/2000/svg">
<path d="M59.965 0.0090332C42.9759 0.0090332 35.0197 16.4729 34.547 17.497C34.4333 17.7333 29.3742 28.0353 20.0438 28.0353C15.6411 28.0353 12.0525 24.4467 12.0525 20.044C12.0525 15.6414 15.6411 12.0528 20.0438 12.0528C25.6017 12.0528 29.6455 15.7114 32.0263 18.7136C32.7265 17.6545 33.1028 16.9018 33.1379 16.823C33.4267 16.2191 35.2998 12.3679 38.9322 8.35914C34.7571 4.12282 28.5252 0.0090332 20.0438 0.0090332C8.98906 0.0090332 0 8.99809 0 20.044C0 31.09 8.98906 40.0791 20.035 40.0791C37.1991 40.0791 45.1379 23.2826 45.4705 22.5648C45.523 22.4598 50.5733 12.0528 59.965 12.0528C64.3676 12.0528 67.9562 15.6414 67.9562 20.044C67.9562 24.4467 64.3676 28.0353 59.965 28.0353C54.407 28.0353 50.3632 24.3766 47.9737 21.3745C47.2823 22.4248 46.9147 23.1688 46.8796 23.23C46.5996 23.8252 44.744 27.6852 41.0766 31.7377C45.2516 35.974 51.4748 40.0878 59.965 40.0878C71.0109 40.0878 80 31.0987 80 20.0528C80 9.00684 71.0109 0.0090332 59.965 0.0090332Z" fill="black"/>
</svg>
