<svg width="80" height="80" viewBox="0 0 79 80" fill="none" xmlns="http://www.w3.org/2000/svg">
<path fill-rule="evenodd" clip-rule="evenodd" d="M38.6989 1C-9.8011 1 -13.3011 79.5 38.6989 79.5C91.7366 79.5 90.6989 1 38.6989 1ZM32.379 14.1912C32.9655 14.0818 33.5217 14.5218 33.5466 15.1179L34.4885 37.7229C34.496 37.9042 34.4541 38.0841 34.3672 38.2434L31.562 43.3863C31.5208 43.4618 31.4701 43.5316 31.4111 43.5941L23 52.5L17.2061 58.7396C16.8204 59.1549 16.1667 59.1708 15.8039 58.7354C7.97189 49.3381 5.94572 19.1231 32.379 14.1912ZM42.5222 36.6036C42.5074 36.5347 42.5 36.4645 42.5 36.3941V15C42.5 14.4477 42.967 13.9988 43.5191 14.0132C72.7489 14.778 73.8635 48.4877 63.7844 59.2066C63.6027 59.3999 63.351 59.5 63.0858 59.5H61.3966C61.1418 59.5 60.8967 59.4028 60.7112 59.2282L44.2271 43.7137C44.0792 43.5746 43.9772 43.3936 43.9347 43.1951L42.5222 36.6036ZM35.132 53.8904C34.8338 53.2343 33.9604 53.0995 33.4783 53.6352L25.5584 62.4351C25.5195 62.4783 25.4845 62.5248 25.4537 62.5741L23.4983 65.7027C23.2183 66.1508 23.3351 66.7394 23.7651 67.0465L26.3202 68.8716C26.4386 68.9562 26.5741 69.0139 26.7172 69.0407L33.8294 70.3743C34.2339 70.4501 34.6435 70.2704 34.8616 69.9214L36.848 66.7432C36.9473 66.5843 37 66.4006 37 66.2132V58.2166C37 58.0739 36.9694 57.9328 36.9104 57.8028L35.132 53.8904ZM42.5 62.5929C42.5 62.5311 42.5057 62.4694 42.5171 62.4087L43.7212 55.9869C43.8533 55.2823 44.6622 54.9415 45.2588 55.3392L51.3036 59.3691C51.4328 59.4552 51.5401 59.5702 51.6171 59.705L55.0369 65.6896C55.2977 66.1459 55.1607 66.7262 54.7234 67.0178L49.7519 70.3321C49.5877 70.4416 49.3946 70.5 49.1972 70.5H44.4142C44.149 70.5 43.8946 70.3946 43.7071 70.2071L42.7929 69.2929C42.6054 69.1054 42.5 68.851 42.5 68.5858V62.5929Z" fill="black" stroke="black" stroke-linejoin="round"/>
</svg>
