<svg width="80" height="80" viewBox="0 0 80 82" fill="none" xmlns="http://www.w3.org/2000/svg">
<path fill-rule="evenodd" clip-rule="evenodd" d="M34.6175 0.0797739C34.8694 0.027156 35.1293 0.0271559 35.3811 0.0797738L50.6697 3.27439C51.1941 3.38395 51.646 3.71346 51.9107 4.17911L59.2094 17.0186C59.4159 17.3819 59.4945 17.8039 59.4327 18.2172L57.3085 32.4222C57.1797 33.2832 57.706 34.0881 58.3397 34.6851C58.8831 35.1971 59.272 35.9456 58.6635 36.8957C57.7454 38.3286 57.0704 39.7948 56.7921 40.4342C56.6969 40.6527 56.5667 40.8545 56.4018 41.0265L47.947 49.8423C47.6298 50.173 47.4454 50.6089 47.4288 51.0669L47.3917 52.0939C47.3625 52.9017 46.8167 53.5988 46.0397 53.8211L44.5011 54.2613C44.0229 54.3981 43.5313 54.091 43.4446 53.6012V53.6012C43.3585 53.1156 42.8741 52.8086 42.3982 52.9383L41.9837 53.0512C41.4905 53.1856 41.1316 53.6108 41.082 54.1195L41.0617 54.3278C41.0131 54.8263 40.7252 55.2715 40.2741 55.4892C39.5599 55.8338 38.4605 56.2974 37.7154 56.2974C37.2154 56.2974 36.926 55.8994 36.7613 55.4258C36.4964 54.6642 35.8056 53.8816 34.9993 53.8816V53.8816V53.8816C34.1931 53.8816 33.5022 54.6642 33.2376 55.4258C33.0731 55.8994 32.784 56.2974 32.2846 56.2974C31.5395 56.2974 30.4394 55.8337 29.7248 55.4891C29.2736 55.2715 28.9858 54.8262 28.9375 54.3276L28.9175 54.1203C28.8682 53.6112 28.5092 53.1855 28.0156 53.051L27.6019 52.9383C27.1259 52.8086 26.6412 53.1155 26.5548 53.6012V53.6012C26.4677 54.0911 25.9759 54.3981 25.4975 54.2613L23.9596 53.8213C23.1823 53.5989 22.6365 52.9013 22.6076 52.0933L22.5709 51.0674C22.5545 50.6091 22.37 50.1729 22.0526 49.8419L13.5973 41.0269C13.4321 40.8547 13.3017 40.6524 13.2065 40.4335C12.9283 39.7938 12.2543 38.328 11.3365 36.8957C10.7274 35.9457 11.1159 35.1971 11.6592 34.6851C12.2927 34.088 12.8191 33.2833 12.6904 32.4223L10.5672 18.217C10.5055 17.8039 10.5841 17.3819 10.7905 17.0187L18.088 4.17921C18.3527 3.7135 18.8047 3.38394 19.329 3.27438L34.6175 0.0797739ZM33.1221 38.156C34.0663 37.0281 35.9331 37.0277 36.8774 38.1555C37.075 38.3915 37.2737 38.604 37.4654 38.7729C38.4743 39.6642 38.2673 42.1198 35.8287 41.4331C35.287 41.2805 34.7117 41.2806 34.17 41.4331C31.7324 42.1196 31.5246 39.6641 32.5346 38.7729C32.7262 38.6041 32.9247 38.3918 33.1221 38.156ZM40.5154 32.2077C39.9068 31.0614 40.6247 29.6593 41.9104 29.4829L52.1962 28.0721C53.3539 27.9134 54.3711 28.8451 54.3143 30.0122L54.167 33.0381C54.1474 33.4416 53.9974 33.8279 53.7395 34.1389L52.2508 35.9342C51.8181 36.4561 51.1364 36.7023 50.4701 36.5775L42.8756 35.1544C42.3173 35.0498 41.837 34.6967 41.5707 34.1951L40.5154 32.2077ZM29.4833 32.2077C30.0919 31.0614 29.374 29.6593 28.0882 29.4829L17.803 28.0722C16.6452 27.9134 15.6278 28.8455 15.6849 30.0127L15.8328 33.0386C15.8526 33.4418 16.0025 33.8278 16.2601 34.1386L17.7479 35.9338C18.1806 36.4559 18.8624 36.7023 19.5289 36.5774L27.1231 35.1544C27.6814 35.0498 28.1617 34.6967 28.428 34.1951L29.4833 32.2077ZM69.9989 72.3463C70.0752 73.9242 66.2501 74.5418 65.755 76.0113C65.6864 76.215 65.6635 76.4339 65.6185 76.644C65.5106 77.1476 65.4019 78.1709 65.9985 79.0637C66.8275 80.3033 65.63 83.1839 61.8875 81.469C58.1464 79.7541 57.1963 74.8496 49.3837 72.0343C46.6193 71.0388 41.3325 69.0575 35.6593 66.9153C35.2341 66.7548 34.7646 66.7548 34.3394 66.9154C28.6674 69.0575 23.3807 71.0388 20.615 72.0343C12.8024 74.8496 11.8536 79.7541 8.11115 81.469C4.36998 83.1839 3.16986 80.3033 4.00021 79.0637C4.5977 78.1696 4.48843 77.1446 4.38079 76.6418C4.33611 76.4331 4.31328 76.2158 4.24533 76.0135C3.75135 74.5424 -0.075198 73.925 0.0011263 72.3463C0.0827134 70.6598 3.92915 70.3974 8.39012 70.5808C12.8172 70.7638 18.924 68.4513 19.0164 68.4162C19.0193 68.4151 19.0161 68.4163 19.019 68.4152C19.0842 68.3907 21.3431 67.5428 24.7301 66.2666C26.3389 65.6604 26.341 63.3851 24.7338 62.7743C19.1311 60.6449 14.6432 58.9309 13.8118 58.6133C13.7165 58.5769 13.6259 58.5507 13.5257 58.5309C12.6895 58.3656 8.4776 57.5567 5.33981 57.3979C1.84078 57.2197 -1.04634 55.1032 0.366956 53.1627C0.456532 53.0398 0.546335 52.9286 0.635977 52.828C0.979267 52.4429 2.06115 50.0233 2.23292 49.5368V49.5368C2.57901 48.5555 3.6186 47.1041 6.66627 48.5397C9.71394 49.9764 8.61909 52.0444 13.5367 54.124C16.0182 55.1729 25.527 58.8009 34.3388 62.1386C34.7647 62.2999 35.234 62.2999 35.6599 62.1386C44.4728 58.8009 53.9805 55.1729 56.462 54.124C61.3783 52.0444 60.2848 49.9764 63.3338 48.5397C66.3801 47.1041 67.4197 48.5555 67.7658 49.5368V49.5368C67.9381 50.0231 69.0204 52.4432 69.3634 52.8286C69.4529 52.929 69.5424 53.0401 69.6317 53.1627C71.0464 55.1032 68.1579 57.2197 64.6589 57.3979C61.5222 57.5567 57.3103 58.3656 56.4742 58.5309C56.3741 58.5507 56.2836 58.5769 56.1883 58.6133C55.3569 58.9308 50.8685 60.6446 45.2651 62.774C43.6577 63.3848 43.6599 65.6605 45.2689 66.2666C48.6569 67.5428 50.9158 68.3907 50.9811 68.4152C50.9839 68.4163 50.9807 68.4151 50.9836 68.4162C51.076 68.4513 57.1828 70.7638 61.6086 70.5808C66.0682 70.3974 69.916 70.6598 69.9989 72.3463" fill="#231F20"/>
</svg>
