<svg width="80" height="80" viewBox="0 0 80 80" fill="none" xmlns="http://www.w3.org/2000/svg">
<path d="M0 40C0 62.056 17.9181 80 39.9423 80C61.9665 80 79.8846 62.056 79.8846 40C79.8846 17.944 61.9665 9.14634e-07 39.9423 9.14634e-07C17.9181 9.14634e-07 0 17.944 0 40ZM1.03189 40C1.03189 18.5136 18.4869 1.03339 39.9423 1.03339C61.3974 1.03339 78.8527 18.5136 78.8527 40C78.8527 61.4864 61.3974 78.9666 39.9423 78.9666C18.4869 78.9666 1.03189 61.4864 1.03189 40ZM40.5349 1.60046C40.0517 1.80093 39.6753 2.1776 39.4749 2.66174C39.3802 2.89063 39.2022 3.06864 38.9739 3.16345C38.745 3.25826 38.4935 3.25826 38.265 3.16345C38.0248 3.06373 37.8424 2.87488 37.7513 2.63048C37.652 2.36335 37.3546 2.22695 37.0876 2.32693C36.8206 2.42665 36.6851 2.72426 36.7847 2.99139C36.9738 3.50033 37.3695 3.91058 37.8697 4.11829C38.1114 4.21879 38.3656 4.26866 38.6191 4.26866C38.873 4.26866 39.1271 4.21879 39.3686 4.11829C39.852 3.91782 40.2281 3.5409 40.428 3.05701C40.523 2.82838 40.701 2.64986 40.9296 2.55505C41.1581 2.46024 41.4099 2.46024 41.6382 2.55505C41.867 2.64986 42.0448 2.82838 42.1395 3.05701C42.2486 3.32079 42.5499 3.44608 42.8138 3.33706C43.0772 3.22778 43.2021 2.92551 43.0932 2.66174C42.893 2.17785 42.5164 1.80093 42.0332 1.60046C41.7917 1.49996 41.5376 1.44984 41.2838 1.44984C41.0299 1.44984 40.7761 1.49996 40.5349 1.60046ZM33.0077 3.31019C32.9541 3.55174 32.8098 3.75842 32.6011 3.89147C32.3922 4.02452 32.1445 4.06791 31.9031 4.0147C31.6495 3.95838 31.4369 3.80389 31.3051 3.57913C31.1606 3.33293 30.8446 3.25129 30.5988 3.39545C30.3532 3.54012 30.2709 3.8571 30.4153 4.10279C30.6903 4.57092 31.1511 4.90651 31.6797 5.02354C31.8218 5.05532 31.965 5.07082 32.1074 5.07082C32.4758 5.07082 32.8375 4.96618 33.1555 4.76286C33.5967 4.48127 33.9021 4.04492 34.0151 3.53365C34.1255 3.03453 34.6203 2.71884 35.12 2.8289C35.3612 2.88237 35.5676 3.02704 35.7004 3.2363C35.8537 3.47682 36.172 3.54786 36.4127 3.39441C36.6531 3.24121 36.7238 2.92189 36.5709 2.68112C36.2899 2.23909 35.8539 1.9332 35.3432 1.82005C35.201 1.78853 35.0589 1.77329 34.919 1.77329C34.021 1.77329 33.2102 2.39693 33.0077 3.31019V3.31019ZM45.9556 3.14743C45.8228 3.35643 45.617 3.50111 45.3755 3.55485C45.1333 3.60807 44.8861 3.56466 44.6774 3.43135C44.4584 3.29159 44.3119 3.07381 44.2649 2.81805C44.213 2.53722 43.9429 2.35122 43.6643 2.40289C43.3837 2.4543 43.1985 2.72349 43.2498 3.00432C43.3476 3.53806 43.6661 4.0116 44.123 4.30302C44.4411 4.50634 44.8023 4.61097 45.1712 4.61097C45.3133 4.61097 45.4567 4.59546 45.5989 4.56343C46.1097 4.45001 46.5456 4.14413 46.8258 3.70288C47.1005 3.27118 47.6748 3.14433 48.1059 3.41896C48.3141 3.55175 48.4585 3.75869 48.5122 4.00076C48.5738 4.27951 48.8504 4.45467 49.1274 4.3937C49.4058 4.33195 49.5812 4.05603 49.5196 3.77727C49.4063 3.26549 49.1011 2.82863 48.66 2.54729C48.3349 2.33984 47.9712 2.24063 47.6113 2.24063C46.9641 2.24063 46.3295 2.56124 45.9556 3.14743V3.14743ZM27.3844 3.71295C26.999 4.06715 26.774 4.54999 26.7511 5.0734C26.7405 5.3209 26.634 5.54928 26.4516 5.71643C26.2692 5.88358 26.0329 5.97064 25.7855 5.95953C25.526 5.94816 25.2899 5.83269 25.1207 5.63428C24.936 5.41701 24.6102 5.39091 24.3937 5.57666C24.1768 5.76164 24.151 6.08793 24.3357 6.30468C24.6875 6.71803 25.1994 6.96838 25.7406 6.99189C25.7695 6.99292 25.7986 6.99395 25.8278 6.99395C26.3185 6.99395 26.7846 6.81285 27.1486 6.47881C27.5345 6.12487 27.7592 5.64177 27.7819 5.11836C27.7928 4.87086 27.8993 4.64222 28.0814 4.47481C28.2641 4.30766 28.4991 4.22164 28.7475 4.23223C28.9947 4.24308 29.223 4.34952 29.3901 4.53243C29.5826 4.74298 29.9089 4.7572 30.1192 4.56447C30.3292 4.37174 30.3436 4.04466 30.1512 3.83437C29.798 3.44814 29.3154 3.22261 28.7927 3.19987C28.763 3.19858 28.7336 3.19781 28.7042 3.19781C28.2115 3.19781 27.7482 3.37917 27.3844 3.71295V3.71295ZM50.1263 3.62098C49.8415 3.62356 49.6122 3.8566 49.6142 4.14207C49.6184 4.6846 49.8498 5.2062 50.2494 5.57228C50.6348 5.92647 51.1358 6.11145 51.6579 6.08561C52.1805 6.06262 52.6627 5.83707 53.0146 5.45162C53.3605 5.07443 53.9482 5.04886 54.3246 5.39427C54.507 5.56168 54.6132 5.79032 54.6241 6.03807C54.6362 6.31579 54.8645 6.53228 55.139 6.53228C55.1465 6.53228 55.1545 6.53203 55.1617 6.53203C55.4468 6.51937 55.6673 6.27808 55.6549 5.99286C55.632 5.46894 55.407 4.98583 55.0216 4.63241C54.2263 3.90233 52.9849 3.95605 52.2541 4.75331C52.0874 4.93596 51.8594 5.0424 51.6125 5.05325C51.3636 5.06384 51.1288 4.97807 50.9464 4.81041C50.7547 4.63473 50.6482 4.39447 50.6461 4.13406C50.6435 3.85014 50.4137 3.62098 50.1305 3.62098H50.1263ZM4.7578 40C4.7578 59.4287 20.5417 75.2351 39.9423 75.2351C59.3429 75.2351 75.1265 59.4287 75.1265 40C75.1265 20.5713 59.3429 4.76495 39.9423 4.76495C20.5417 4.76495 4.7578 20.5713 4.7578 40ZM5.7897 40C5.7897 21.141 21.1105 5.79806 39.9423 5.79806C58.7741 5.79806 74.0949 21.141 74.0949 40C74.0949 58.859 58.7741 74.2017 39.9423 74.2017C21.1105 74.2017 5.7897 58.859 5.7897 40ZM22.5809 5.69757C21.5106 5.83889 20.7545 6.82551 20.8953 7.89765C20.9276 8.14333 20.8623 8.38669 20.7119 8.58329C20.5615 8.7799 20.3433 8.90598 20.0979 8.93827C19.8405 8.9734 19.588 8.89951 19.3872 8.73391C19.1677 8.55204 18.8424 8.58278 18.661 8.8034C18.4797 9.02326 18.5104 9.34903 18.7302 9.53065C19.0823 9.8218 19.5265 9.9794 19.9788 9.9794C20.0636 9.9794 20.1483 9.97424 20.2329 9.96287C20.7511 9.89441 21.2124 9.62804 21.5307 9.21262C21.8493 8.79694 21.9868 8.28206 21.9185 7.76278C21.8519 7.25565 22.2092 6.78909 22.7154 6.72217C22.9602 6.69014 23.2042 6.75524 23.4008 6.90611C23.6273 7.07998 23.9508 7.03683 24.1244 6.81078C24.2975 6.58395 24.2549 6.25998 24.0289 6.08612C23.683 5.82054 23.2684 5.68078 22.8399 5.68078C22.754 5.68078 22.6676 5.68621 22.5809 5.69757V5.69757ZM55.6851 6.36849C55.5948 6.90353 55.7324 7.45768 56.0626 7.88782C56.3806 8.3035 56.8419 8.57012 57.3604 8.63833C57.8779 8.70601 58.3928 8.56857 58.8069 8.24977C59.2127 7.93872 59.7957 8.01545 60.1065 8.42131C60.2569 8.61739 60.322 8.86101 60.2897 9.10748C60.2526 9.39037 60.4517 9.65001 60.7339 9.68721C60.7571 9.69005 60.7796 9.69134 60.8018 9.69134C61.0569 9.69134 61.2788 9.50197 61.3126 9.24207C61.3812 8.72177 61.2432 8.20688 60.9251 7.79224C60.2686 6.93453 59.0365 6.77176 58.1787 7.42977C57.9829 7.58065 57.7396 7.64628 57.4948 7.61372C57.2495 7.58143 57.0318 7.45535 56.8808 7.25875C56.7225 7.05207 56.6592 6.7971 56.7028 6.54108C56.75 6.25948 56.5609 5.99286 56.28 5.94507C56.2511 5.94016 56.2222 5.93783 56.1938 5.93783C55.9462 5.93783 55.728 6.11609 55.6851 6.36849V6.36849ZM44.9565 9.21986C44.89 9.49732 45.06 9.77634 45.337 9.84325C46.4105 10.1029 47.398 10.4734 48.2882 10.9422C47.3376 11.4918 46.0062 12.4727 45.1386 13.9969C44.7071 13.4216 44.2368 12.9137 43.7399 12.4815C43.6726 12.3249 43.5348 12.2164 43.3746 12.1821C43.0111 11.9015 42.6361 11.6584 42.2506 11.468C41.9947 11.3414 41.6857 11.4468 41.5598 11.7028C41.4337 11.9588 41.5386 12.2683 41.7943 12.3947C41.9047 12.4494 42.0138 12.5115 42.1227 12.5753C41.2572 13.0238 40.6179 13.714 40.2199 14.6405C40.1213 14.8696 40.0388 15.1143 39.9707 15.3734C39.9026 15.1143 39.8198 14.8696 39.7215 14.6405C39.3188 13.7035 38.671 13.007 37.7908 12.559C37.8901 12.5019 37.9894 12.4443 38.09 12.3947C38.3457 12.2683 38.4504 11.9588 38.3246 11.7028C38.1984 11.4468 37.8888 11.3417 37.6337 11.468C37.2336 11.6659 36.8445 11.9193 36.4682 12.2138C36.3848 12.2503 36.3113 12.3074 36.2569 12.3823C35.718 12.8344 35.2098 13.3779 34.7462 13.9969C33.8781 12.4727 32.5467 11.4918 31.5958 10.9422C32.4869 10.4734 33.4739 10.1029 34.547 9.84325C34.8244 9.77634 34.9949 9.49732 34.9278 9.21986C34.8607 8.94265 34.5821 8.77189 34.3053 8.8388C32.7918 9.20436 31.4364 9.77711 30.2603 10.5222C30.2446 10.5315 30.2296 10.5418 30.2146 10.5524C28.529 11.6315 27.2221 13.0736 26.3806 14.8009C25.9052 13.2935 25.9668 11.7635 26.6043 10.3525C26.7219 10.092 26.6069 9.78616 26.3468 9.66887C26.0876 9.55107 25.7819 9.66653 25.6642 9.92643C24.7765 11.8914 24.8601 14.1042 25.8275 16.1836C25.729 16.4915 25.6387 16.8044 25.567 17.126C25.2997 18.325 25.2528 19.5253 25.397 20.6669C24.7933 20.8757 24.1822 21.0066 23.6038 21.0655C21.4059 21.2906 18.838 20.5434 17.8796 18.4049C19.3044 16.7178 21.7572 15.7498 24.0571 17.0214C24.3073 17.1591 24.6205 17.0684 24.7582 16.8186C24.8957 16.5688 24.8052 16.2544 24.556 16.1167C21.531 14.4444 18.3148 15.9219 16.7009 18.2452C15.3698 20.1619 14.7734 23.1073 16.5397 26.0488C15.5016 26.6998 14.5825 27.48 13.8011 28.3672C13.3873 27.5356 13.1123 26.5329 13.0142 25.4006C12.9895 25.1164 12.7385 24.9054 12.4558 24.9309C12.172 24.9555 11.9617 25.2056 11.9862 25.49C12.1119 26.9432 12.504 28.214 13.0989 29.2391C12.0146 30.7313 11.2846 32.4638 10.991 34.3464C10.9469 34.6285 11.1396 34.8925 11.421 34.9367C11.7025 34.9801 11.9664 34.7876 12.0105 34.5058C12.2589 32.912 12.8551 31.4376 13.7314 30.1436C14.5902 31.1646 15.7129 31.8032 17.0108 31.9272C17.1529 31.9404 17.2964 31.9474 17.4421 31.9474C18.7459 31.9474 20.1777 31.3978 21.4647 30.2118C21.8612 30.359 22.2644 30.4781 22.671 30.5729C22.3439 30.7215 22.0157 30.8687 21.6889 31.0152C17.1774 33.0373 12.5125 35.1286 11.9878 39.6654C11.955 39.9491 12.1581 40.2054 12.441 40.2382C12.4609 40.2405 12.481 40.2418 12.5009 40.2418C12.7594 40.2418 12.9823 40.0478 13.0127 39.7843C13.4698 35.8313 17.6671 33.9501 22.1104 31.9582C22.9181 31.5963 23.7326 31.2304 24.5333 30.8481C24.8493 30.8698 25.1646 30.8809 25.4782 30.8809C27.6393 30.8809 29.7106 30.4004 31.2481 29.917C31.633 31.1767 31.705 32.6384 31.4547 34.2696C30.6122 33.7896 29.6845 33.3789 28.6709 33.0458C25.025 31.8476 20.6448 32.9203 17.772 35.7156C14.9173 38.4928 13.9989 42.514 15.2522 46.7485C15.3332 47.0224 15.6208 47.1781 15.8937 47.0973C16.1667 47.0162 16.3225 46.7289 16.2415 46.4548C15.084 42.5447 15.8829 38.9937 18.491 36.4565C21.0176 33.9986 24.8181 33.0125 28.0474 33.9413C27.1509 34.0314 26.2581 34.3035 25.4408 34.8145C23.8896 35.7843 21.4833 38.4143 22.801 45.124C22.8492 45.3705 23.0649 45.541 23.3066 45.541C23.3397 45.541 23.3729 45.5379 23.4065 45.5315C23.6861 45.4762 23.8682 45.2046 23.8133 44.9246C22.9253 40.4022 23.6975 37.1231 25.9877 35.691C28.0069 34.4285 30.68 34.9238 32.2408 36.0393C32.3112 36.0938 32.3821 36.1483 32.451 36.2044C32.4721 36.2284 32.4956 36.2506 32.5214 36.2705C30.607 36.7322 29.2312 38.1642 28.8683 40.2121C28.8187 40.4932 29.0055 40.7616 29.2862 40.8112C29.5666 40.8611 29.8344 40.6738 29.8844 40.3927C30.275 38.1885 31.9074 37.2931 33.4803 37.1608C34.0455 37.7638 34.528 38.4285 34.9263 39.1495C34.9438 39.1978 34.9696 39.2433 35.0008 39.2849C36.0389 41.2336 36.4718 43.5897 36.2507 46.2856C36.1828 47.1123 36.2938 47.9108 36.5306 48.6807C36.4736 48.7843 36.4181 48.891 36.365 49.001C36.3528 49.023 36.3428 49.0465 36.3338 49.0703C35.9842 49.821 35.7433 50.7291 35.7433 51.9139C35.7433 52.4208 35.7843 52.93 35.8619 53.4399C33.9625 55.7746 33.5629 58.1912 34.6696 60.2171C34.1395 60.5532 33.5856 60.8697 33.0036 61.1573C31.051 62.123 29.6461 63.053 28.6418 63.92C26.8401 61.6858 25.5175 61.5073 24.7085 61.777C23.7849 62.0837 23.3716 63.0212 23.3716 63.8149C23.3716 64.1001 23.6025 64.3316 23.8876 64.3316C24.1724 64.3316 24.4033 64.1001 24.4033 63.8149C24.4033 63.4064 24.6006 62.9016 25.0335 62.7575C25.2959 62.6707 26.2478 62.5684 27.8898 64.6328C26.6977 65.8855 26.3303 66.9783 26.3025 67.8179C26.2958 68.02 26.3105 68.2181 26.3412 68.4127C25.6645 68.3757 25.1695 68.1995 24.8302 68.0164C23.7751 67.4467 23.4008 66.428 23.4008 65.7287C23.4008 65.4435 23.1699 65.212 22.8846 65.212C22.5998 65.212 22.3689 65.4435 22.3689 65.7287C22.3689 67.0243 23.1426 68.2791 24.3403 68.926C24.9022 69.2293 25.6462 69.4626 26.6063 69.4626C26.6389 69.4626 26.6729 69.461 26.706 69.4605C27.0586 70.0924 27.6357 70.6536 28.415 71.1059C28.4963 71.1532 28.5853 71.1757 28.6733 71.1757C28.8513 71.1757 29.0246 71.0834 29.1203 70.9181C29.263 70.6711 29.1789 70.3549 28.9325 70.212C28.5688 70.001 28.1738 69.7119 27.8673 69.3391C28.8208 69.1603 29.936 68.7702 31.2313 68.076C32.7454 69.1495 34.2125 69.5817 35.4964 69.5817C36.471 69.5817 37.3399 69.3355 38.0444 68.9387C38.7383 68.5478 39.2912 68.0151 39.6897 67.4028C39.7021 67.386 39.713 67.3687 39.7235 67.3503C39.8027 67.2248 39.8763 67.0964 39.9423 66.9644C40.0081 67.0966 40.0819 67.2253 40.1613 67.3514C40.1719 67.3689 40.1822 67.386 40.1946 67.4025C40.5927 68.0148 41.146 68.5478 41.8397 68.9387C42.5445 69.3355 43.4133 69.5817 44.388 69.5817C45.6719 69.5817 47.139 69.1495 48.6533 68.076C49.9481 68.7702 51.0638 69.1606 52.0175 69.3391C51.7105 69.7119 51.3158 70.001 50.9521 70.212C50.7057 70.3549 50.6214 70.6711 50.7643 70.9181C50.86 71.0834 51.0334 71.1757 51.2111 71.1757C51.2991 71.1757 51.3881 71.1532 51.4696 71.1059C52.2489 70.6536 52.826 70.0924 53.1789 69.4605C53.2114 69.461 53.2455 69.4626 53.2777 69.4626C54.2376 69.4626 54.9824 69.2293 55.5437 68.926C56.7418 68.2791 57.5157 67.0243 57.5157 65.7287C57.5157 65.4435 57.2846 65.212 56.9998 65.212C56.715 65.212 56.4838 65.4435 56.4838 65.7287C56.4838 66.428 56.1092 67.4467 55.0541 68.0164C54.7146 68.1995 54.2196 68.376 53.5434 68.4127C53.5739 68.2184 53.5886 68.02 53.5819 67.8179C53.5537 66.9783 53.1864 65.8855 51.9946 64.6328C53.6371 62.5684 54.589 62.6707 54.8506 62.7575C55.284 62.9016 55.4808 63.4064 55.4808 63.8149C55.4808 64.1001 55.712 64.3316 55.9968 64.3316C56.2818 64.3316 56.513 64.1001 56.513 63.8149C56.513 63.0212 56.0994 62.0837 55.1756 61.777C54.3676 61.5078 53.0442 61.6861 51.2426 63.92C50.2383 63.053 48.8331 62.1235 46.8808 61.1573C46.2993 60.8697 45.7449 60.5533 45.2153 60.2174C46.3215 58.1912 45.9216 55.7746 44.0224 53.4399C44.1001 52.93 44.1408 52.4208 44.1408 51.9139C44.1408 50.7291 43.9007 49.821 43.5508 49.0705C43.5416 49.0465 43.5317 49.0227 43.5191 49.0005C43.4662 48.8907 43.411 48.7843 43.3537 48.6807C43.5903 47.9108 43.7017 47.1123 43.6339 46.2856C43.4172 43.6424 43.8279 41.3251 44.8229 39.3983C44.9583 39.3043 45.037 39.1537 45.0435 38.9948C45.4245 38.3329 45.8793 37.7206 46.404 37.1608C47.974 37.2928 49.6098 38.1887 49.9999 40.3927C50.0497 40.674 50.3185 40.8608 50.5982 40.8112C50.8786 40.7616 51.0658 40.4932 51.0158 40.2121C50.6559 38.1797 49.2959 36.7521 47.4052 36.2806C47.4723 36.232 47.5267 36.1713 47.5626 36.101C47.5894 36.0801 47.617 36.06 47.6438 36.0393C49.2043 34.9238 51.8775 34.4282 53.8966 35.691C56.1869 37.1231 56.959 40.4022 56.0711 44.9246C56.0161 45.2046 56.1982 45.4762 56.4781 45.5315C56.5114 45.5379 56.5452 45.541 56.578 45.541C56.8194 45.541 57.0354 45.3705 57.0836 45.124C58.4011 38.4143 55.995 35.7843 54.4435 34.8145C53.6268 34.3035 52.7342 34.0314 51.8377 33.941C55.0665 33.013 58.8672 33.9989 61.3936 36.4565C64.0012 38.9937 64.8001 42.5447 63.6428 46.4548C63.5618 46.7289 63.7177 47.0162 63.9911 47.0973C64.2638 47.1779 64.5512 47.0224 64.6322 46.7485C65.8857 42.514 64.967 38.4928 62.1128 35.7156C59.2392 32.9203 54.8591 31.8476 51.2131 33.0458C50.1998 33.3789 49.2724 33.7896 48.4294 34.2696C48.1797 32.6384 48.2511 31.177 48.636 29.9173C50.1738 30.4004 52.2448 30.8809 54.4061 30.8809C54.7195 30.8809 55.035 30.8698 55.3508 30.8481C56.1521 31.2304 56.9665 31.5963 57.7737 31.9582C62.2175 33.9501 66.4145 35.8313 66.8716 39.7843C66.9021 40.0478 67.125 40.2418 67.3834 40.2418C67.4033 40.2418 67.4232 40.2405 67.4436 40.2382C67.7266 40.2054 67.9293 39.9491 67.8966 39.6654C67.3721 35.1286 62.7069 33.0373 58.1957 31.0152C57.8686 30.8687 57.5407 30.7212 57.2129 30.5729C57.6202 30.4779 58.0231 30.359 58.4197 30.2115C59.7064 31.3979 61.1384 31.9474 62.4425 31.9474C62.5877 31.9474 62.7319 31.9404 62.8738 31.9272C64.1714 31.8029 65.2939 31.1646 66.1529 30.1438C67.0292 31.4379 67.6254 32.9123 67.8738 34.5058C67.918 34.7876 68.1811 34.9801 68.4633 34.9367C68.7448 34.8925 68.9375 34.6285 68.8934 34.3464C68.6001 32.4638 67.8697 30.7313 66.7855 29.2391C67.3803 28.214 67.7725 26.9432 67.8981 25.49C67.9226 25.2056 67.7124 24.9555 67.4289 24.9309C67.1428 24.9056 66.8946 25.1164 66.8701 25.4006C66.772 26.5329 66.4968 27.5356 66.0833 28.3672C65.3021 27.4798 64.3825 26.6996 63.3449 26.0488C65.1107 23.1073 64.5148 20.1619 63.1834 18.2452C61.5698 15.9219 58.3533 14.4444 55.3286 16.1167C55.0789 16.2544 54.9886 16.5688 55.1261 16.8186C55.2639 17.0687 55.5775 17.1591 55.8273 17.0214C58.1276 15.749 60.5799 16.7176 62.0047 18.4049C61.0466 20.5432 58.479 21.2895 56.2805 21.0655C55.7024 21.0066 55.0908 20.8757 54.4874 20.6669C54.6316 19.5253 54.5849 18.325 54.3174 17.126C54.2511 16.8287 54.1698 16.5388 54.0805 16.2533C55.0789 14.1538 55.1746 11.9134 54.2771 9.92643C54.1592 9.66653 53.854 9.55132 53.5943 9.66887C53.3345 9.78616 53.2194 10.092 53.3368 10.3525C53.9838 11.7845 54.0377 13.3389 53.5388 14.8681C52.6986 13.1108 51.378 11.6465 49.6707 10.5532C49.6552 10.5421 49.64 10.5315 49.6233 10.5219C48.4474 9.77686 47.0923 9.20436 45.5793 8.8388C45.5385 8.82899 45.4978 8.82433 45.4575 8.82433C45.2246 8.82433 45.0135 8.98321 44.9565 9.21986V9.21986ZM47.5185 19.3581C47.1751 17.7595 46.5743 16.2603 45.8001 14.9815C46.6731 13.054 48.4528 11.9852 49.3196 11.5625C51.0318 12.7189 52.2853 14.2958 52.9671 16.1864C52.6441 16.7791 52.2394 17.3611 51.7477 17.9233C51.6063 18.0848 51.4562 18.2447 51.2988 18.4023C50.789 17.7045 50.4171 16.8574 50.2651 15.8415C50.2228 15.5594 49.9592 15.3638 49.678 15.4073C49.3965 15.4496 49.202 15.7129 49.2443 15.995C49.4267 17.2097 49.8942 18.2408 50.5442 19.0918C49.7412 19.7627 48.7985 20.367 47.7607 20.8441C47.6972 20.2923 47.6116 19.7932 47.5185 19.3581V19.3581ZM28.1937 17.9233C27.6847 17.3415 27.2668 16.738 26.9386 16.1239C27.6254 14.2607 28.8711 12.7062 30.565 11.5625C31.4315 11.9852 33.2113 13.054 34.0842 14.9815C33.3101 16.2603 32.7092 17.7595 32.3661 19.3584C32.274 19.7867 32.1897 20.2779 32.1265 20.8199C31.0951 20.3399 30.1594 19.7335 29.3626 19.0626C30.001 18.2173 30.46 17.196 30.64 15.995C30.6821 15.7129 30.4884 15.4496 30.2064 15.4073C29.9242 15.3641 29.6618 15.5594 29.6195 15.8415C29.4696 16.8411 29.1074 17.6776 28.6103 18.3692C28.4648 18.2225 28.325 18.0736 28.1937 17.9233V17.9233ZM35.6174 17.4668C35.6249 16.9907 35.5911 16.522 35.5054 16.0637C35.4404 15.7162 35.3493 15.3876 35.2395 15.0761C35.71 14.3721 36.2381 13.7611 36.8053 13.2682C37.7462 13.5828 38.3939 14.1654 38.7737 15.0492C39.2076 16.0593 39.3784 17.7091 38.7979 20.3907C38.1047 19.005 37.0367 18.0251 35.6174 17.4668V17.4668ZM41.1677 15.0492C41.5417 14.1783 42.1756 13.5993 43.0937 13.2818C43.655 13.7719 44.1787 14.3783 44.6449 15.0761C44.535 15.3876 44.4442 15.7162 44.3792 16.0637C44.292 16.5293 44.2587 17.0049 44.268 17.4887C42.8762 18.0507 41.8273 19.0233 41.1429 20.3907C40.563 17.7091 40.7335 16.0593 41.1677 15.0492V15.0492ZM45.3806 16.3484C45.8723 17.3301 46.2619 18.4221 46.5095 19.5754C46.613 20.0562 46.7058 20.6199 46.7659 21.2513C46.6589 21.2898 46.5505 21.326 46.4417 21.3616C45.4885 19.5519 45.1242 17.8623 45.3806 16.3484V16.3484ZM33.1205 21.2312C33.1808 20.608 33.2727 20.051 33.3748 19.5757C33.6225 18.4224 34.0125 17.3301 34.5039 16.3484C34.7593 17.8579 34.3982 19.5416 33.4509 21.3453C33.34 21.3084 33.2298 21.2709 33.1205 21.2312ZM26.5511 17.4707C26.8089 17.8574 27.0957 18.2364 27.4174 18.6043C27.5797 18.7898 27.7533 18.9717 27.9321 19.1512C27.4708 19.5953 26.9466 19.9557 26.3951 20.2406C26.3071 19.3375 26.3571 18.3994 26.5511 17.4707V17.4707ZM51.9811 19.1783C52.17 18.9897 52.3531 18.7991 52.5239 18.6043C52.8265 18.2578 53.1 17.9021 53.3461 17.5391C53.5285 18.4457 53.5749 19.3597 53.4898 20.2406C52.9491 19.9616 52.4357 19.61 51.9811 19.1783ZM34.4787 21.6339C35.0179 20.5703 35.371 19.539 35.5266 18.5438C36.6872 19.0804 37.5398 19.9877 38.064 21.2508C38.1411 21.4373 38.2082 21.6326 38.2709 21.8318C37.8215 21.892 37.3742 21.9204 36.9315 21.9204C36.0933 21.9204 35.2709 21.8184 34.4787 21.6339V21.6339ZM41.6702 21.8318C41.7329 21.6326 41.8 21.4373 41.8774 21.2508C42.393 20.0081 43.2286 19.1109 44.3609 18.5715C44.5195 19.5617 44.874 20.5876 45.4116 21.6455C44.6348 21.8225 43.8295 21.9204 43.0094 21.9204C42.5667 21.9204 42.1196 21.892 41.6702 21.8318V21.8318ZM62.6643 19.3685C63.5494 20.9868 63.8059 23.2447 62.443 25.5274C61.9252 25.257 61.384 25.0154 60.8191 24.808C59.1381 24.191 57.4115 23.9265 55.7788 23.9882C55.7535 23.9872 55.7285 23.9872 55.7027 23.9903C54.8196 24.029 53.9673 24.1667 53.1642 24.3972C53.6871 23.5878 54.0715 22.6707 54.305 21.69C54.9233 21.8951 55.5551 22.0305 56.1761 22.0938C56.4812 22.125 56.7823 22.1403 57.0787 22.1403C59.523 22.1403 61.61 21.0973 62.6643 19.3685ZM17.2203 19.3685C18.2746 21.0976 20.3608 22.1403 22.8059 22.1403C23.1021 22.1403 23.4031 22.125 23.7086 22.0938C24.329 22.0305 24.961 21.8951 25.5791 21.69C25.8128 22.6707 26.1975 23.588 26.7201 24.3974C25.9173 24.167 25.0657 24.0293 24.1832 23.9905C24.1551 23.9872 24.1275 23.9869 24.1001 23.9882C22.469 23.9273 20.7444 24.1918 19.0653 24.808C18.5003 25.0154 17.9588 25.257 17.4413 25.5274C16.0785 23.2447 16.3352 20.9868 17.2203 19.3685ZM39.9707 19.7526C40.0697 20.3262 40.201 20.9309 40.3648 21.5667C40.2831 21.5445 40.2013 21.5236 40.1195 21.4991C40.1048 21.4944 40.0899 21.4934 40.0749 21.4903C40.0571 21.4864 40.0398 21.4817 40.0215 21.4799C40.0042 21.4781 39.9872 21.4794 39.9707 21.4794C39.9534 21.4794 39.9366 21.4781 39.9193 21.4799C39.9005 21.482 39.8822 21.4866 39.8639 21.4908C39.8497 21.4939 39.8358 21.4944 39.8216 21.4991C39.7398 21.5236 39.658 21.5445 39.5762 21.5667C39.74 20.9309 39.8714 20.3262 39.9707 19.7526V19.7526ZM28.9444 25.3575C27.7489 24.3915 26.9262 22.938 26.563 21.2968C27.3328 20.9317 28.0549 20.4466 28.675 19.8413C29.6401 20.6651 30.7786 21.3916 32.0354 21.9362C32.0114 22.4459 32.0099 22.9892 32.0388 23.562C31.4325 24.3737 30.7159 25.2037 29.8989 26.047C29.6001 25.7954 29.2823 25.5639 28.9444 25.3575V25.3575ZM47.8458 23.562C47.8742 22.9988 47.8732 22.464 47.85 21.9615C49.1161 21.4197 50.263 20.6933 51.2361 19.8671C51.8506 20.4605 52.5626 20.9372 53.3211 21.2968C52.9583 22.9378 52.1357 24.391 50.9405 25.3569C50.6023 25.5636 50.2842 25.7951 49.986 26.047C49.169 25.2037 48.4521 24.3737 47.8458 23.562ZM39.6338 27.0532C39.7963 25.4853 39.7834 23.9877 39.5339 22.6458C39.6792 22.6105 39.8249 22.572 39.9707 22.5301C40.1164 22.572 40.2619 22.6105 40.4072 22.6461C40.158 23.9877 40.1448 25.4853 40.3076 27.0532C40.1799 27.2741 40.0664 27.5085 39.9707 27.7578C39.8747 27.5085 39.7612 27.2741 39.6338 27.0532ZM33.0926 23.8789C33.4068 23.4452 33.6942 23.0158 33.9501 22.5919C34.8878 22.8319 35.8679 22.9683 36.8737 22.9683C37.2859 22.9683 37.7023 22.9448 38.1215 22.898C37.8974 23.6085 37.6306 24.3732 37.3179 25.1947C36.381 24.918 35.0743 24.8896 33.3049 25.5331C33.2009 24.9593 33.1323 24.4067 33.0926 23.8789V23.8789ZM45.942 22.6055C46.1958 23.0248 46.4809 23.4496 46.7918 23.8789C46.7526 24.4008 46.6849 24.9475 46.5828 25.5145C44.8404 24.8911 43.5506 24.9209 42.6232 25.1947C42.3107 24.3732 42.044 23.6087 41.8196 22.898C42.2388 22.945 42.6552 22.9683 43.0674 22.9683C44.0554 22.9683 45.0195 22.8375 45.942 22.6055V22.6055ZM38.3645 25.6752C38.3328 25.654 38.2972 25.6334 38.2634 25.6124C38.4159 25.2125 38.5575 24.8232 38.6919 24.4408C38.7115 24.9146 38.7058 25.4068 38.6795 25.9116C38.5784 25.8279 38.4742 25.7478 38.3645 25.6752ZM41.2495 24.4411C41.3839 24.8237 41.5252 25.2128 41.6777 25.6127C41.6439 25.6334 41.6085 25.654 41.5766 25.6752C41.4669 25.7478 41.363 25.8282 41.2613 25.9116C41.2355 25.4068 41.2299 24.9149 41.2495 24.4411V24.4411ZM56.4565 25.0097C57.7639 25.0366 59.1275 25.288 60.4641 25.7786C60.9457 25.9553 61.4083 26.1591 61.8525 26.3857C61.4689 26.8752 61.0069 27.3627 60.4522 27.8412C59.8932 28.3235 59.2857 28.6961 58.651 28.9864C57.793 28.0404 57.0232 26.728 56.4565 25.0097ZM19.4324 27.8412C18.8775 27.3627 18.4154 26.875 18.0321 26.3857C18.4763 26.1591 18.9389 25.9553 19.4205 25.7786C20.7568 25.288 22.1207 25.0371 23.4281 25.0097C22.8611 26.728 22.0908 28.0409 21.2333 28.987C20.5984 28.6963 19.9914 28.3235 19.4324 27.8412ZM50.7264 26.7771C51.9587 25.7682 53.5891 25.1815 55.3825 25.042C55.948 26.8672 56.7333 28.299 57.6287 29.3753C56.9381 29.5879 56.2264 29.7181 55.5105 29.7793C53.7263 28.9141 52.04 27.9608 50.7264 26.7771ZM22.2549 29.3766C23.1506 28.3 23.9363 26.8677 24.5018 25.0423C26.2952 25.1815 27.9259 25.768 29.1582 26.7771C27.8436 27.9621 26.1554 28.9157 24.3692 29.7811C23.6549 29.7194 22.9442 29.5889 22.2549 29.3766ZM30.6423 26.7629C31.2019 26.1857 31.7163 25.6155 32.1819 25.0531C32.2351 25.4321 32.3019 25.8194 32.386 26.2165C32.3814 26.2937 32.3922 26.3733 32.4244 26.4495C32.4306 26.4645 32.4397 26.4771 32.4472 26.4911C32.5738 27.045 32.7332 27.6149 32.9293 28.1977C32.6731 28.3057 32.3089 28.4509 31.86 28.6108C31.5172 27.8709 31.091 27.2615 30.6423 26.7629V26.7629ZM46.955 28.1975C47.1377 27.6554 47.2884 27.1246 47.4101 26.6073C47.4537 26.5629 47.4909 26.5105 47.5167 26.4495C47.5695 26.3257 47.5685 26.1929 47.5267 26.0754C47.5974 25.7277 47.6557 25.3869 47.7027 25.0534C48.1683 25.6158 48.6822 26.1857 49.2422 26.7629C48.7934 27.261 48.3675 27.8701 48.0251 28.6095C47.576 28.4499 47.212 28.3052 46.955 28.1975ZM33.5231 26.5533C34.8589 26.0465 36.017 25.915 36.9397 26.1599C36.4166 27.4591 35.7835 28.8922 35.0256 30.4706C34.3102 29.105 33.8296 27.7882 33.5231 26.5533V26.5533ZM43.0011 26.1599C43.9122 25.9181 45.0523 26.0439 46.3656 26.5342C46.0635 27.758 45.5911 29.0621 44.8882 30.4143C44.1424 28.858 43.5183 27.4439 43.0011 26.1599V26.1599ZM35.644 31.5629C36.512 29.7886 37.2558 28.1326 37.8762 26.5955C38.1357 26.7815 38.3645 27.0135 38.5598 27.2865C38.3173 29.3089 37.7815 31.4854 37.0636 33.6152C36.5249 32.9239 36.0552 32.2388 35.644 31.5629V31.5629ZM41.3813 27.2865C41.5763 27.0137 41.8051 26.7815 42.0649 26.5955C42.6791 28.1179 43.4146 29.7566 44.2719 31.5115C43.8632 32.1876 43.3971 32.8733 42.861 33.5649C42.1516 31.4511 41.6217 29.2931 41.3813 27.2865ZM59.457 29.7517C60.0379 29.4494 60.5982 29.0787 61.1255 28.624C61.7792 28.06 62.3202 27.4839 62.7634 26.9037C63.8221 27.5632 64.748 28.3677 65.5144 29.29C64.8058 30.2182 63.865 30.7943 62.7755 30.8982C62.6633 30.9088 62.5498 30.9142 62.4347 30.9142C61.4808 30.9142 60.438 30.543 59.457 29.7517V29.7517ZM17.1088 30.8982C16.0194 30.7943 15.0785 30.2182 14.3699 29.29C15.1363 28.3677 16.062 27.5632 17.1207 26.9037C17.5641 27.4839 18.1049 28.06 18.7588 28.624C19.2859 29.0787 19.8462 29.4494 20.4276 29.7519C19.4468 30.543 18.4043 30.9145 17.4509 30.9145C17.3356 30.9145 17.2213 30.9091 17.1088 30.8982ZM49.0178 28.9368C49.2724 28.4098 49.5939 27.928 49.979 27.4932C50.9317 28.3631 52.0539 29.1068 53.2597 29.778C51.6788 29.6522 50.1918 29.2967 49.0178 28.9368V28.9368ZM29.9056 27.4932C30.291 27.9288 30.6127 28.4109 30.8673 28.9387C29.6917 29.2996 28.2022 29.6561 26.6185 29.7811C27.8266 29.1092 28.9513 28.3649 29.9056 27.4932ZM45.4441 31.5539C45.9041 30.7437 46.2848 29.9478 46.596 29.1714C46.8606 29.2833 47.219 29.4277 47.6508 29.5843C47.2246 30.9566 47.0822 32.6893 47.4813 34.8656C47.4016 34.9204 47.3211 34.9747 47.2435 35.0312C46.5836 33.8038 45.9851 32.6457 45.4441 31.5539V31.5539ZM32.4033 34.8656C32.8024 32.6893 32.6597 30.9566 32.2333 29.5843C32.6656 29.4277 33.0237 29.2833 33.2884 29.1714C33.6065 29.9648 33.9968 30.7789 34.4702 31.6074C33.932 32.6922 33.3371 33.8426 32.6821 35.0612C32.5911 34.9943 32.4967 34.93 32.4033 34.8656V34.8656ZM40.5901 30.1374C40.5901 29.8455 40.6089 29.5638 40.6442 29.2941C40.9824 31.0367 41.4914 32.8123 42.094 34.513L41.5812 35.1356C40.9819 35.8613 40.4384 36.524 39.9423 37.1414C39.4462 36.524 38.9024 35.8613 38.3034 35.1356L37.8303 34.5616C38.4404 32.8459 38.9556 31.0532 39.2969 29.2941C39.3322 29.5638 39.3513 29.8455 39.3513 30.1374C39.3513 30.4229 39.5824 30.6543 39.8672 30.6543C39.9028 30.6543 39.9371 30.6507 39.9707 30.6437C40.004 30.6507 40.0385 30.6543 40.0741 30.6543C40.3589 30.6543 40.5901 30.4229 40.5901 30.1374V30.1374ZM43.2653 34.7135C43.8478 34.002 44.3591 33.2957 44.8108 32.5971C45.311 33.5912 45.8481 34.6207 46.4223 35.6848C46.2637 35.8236 46.1107 35.9662 45.9613 36.1119C45.9399 36.1122 45.919 36.1116 45.8981 36.1109C45.8703 36.1101 45.8424 36.1096 45.8143 36.1101C45.1931 36.1274 44.5593 36.238 43.9445 36.4387C43.7074 35.8727 43.4804 35.2963 43.2653 34.7135ZM33.9233 36.1121C33.7858 35.9783 33.6459 35.8466 33.5004 35.7189C34.0721 34.66 34.6071 33.6359 35.1056 32.6459C35.5583 33.3422 36.0688 34.0459 36.6516 34.7543L36.6578 34.7623C36.4462 35.3345 36.2226 35.9 35.9899 36.4558C35.3594 36.2449 34.708 36.1279 34.07 36.1101C34.0424 36.1098 34.0151 36.1103 33.9878 36.1111C33.9694 36.1116 33.9509 36.1121 33.932 36.1121C33.9292 36.1121 33.9261 36.1121 33.9233 36.1121V36.1121ZM40.5973 37.966C41.1264 37.3098 41.7179 36.5922 42.3765 35.7936L42.5084 35.6337C42.665 36.0393 42.8257 36.4392 42.99 36.8316C42.2272 37.2158 41.5257 37.7514 40.9548 38.4305C40.8385 38.2779 40.7216 38.1254 40.5973 37.966V37.966ZM36.9413 36.8557C37.1028 36.4705 37.2609 36.0788 37.4147 35.6805L37.5078 35.7936C38.1667 36.5922 38.7582 37.3098 39.287 37.966C39.1624 38.1254 39.0461 38.2779 38.9297 38.4305C38.3705 37.765 37.6858 37.238 36.9413 36.8557ZM44.3588 37.3941C44.5554 37.3339 44.7532 37.2804 44.9527 37.2422C44.8105 37.4256 44.6753 37.6142 44.5458 37.8064C44.4826 37.67 44.4205 37.5325 44.3588 37.3941ZM34.9317 37.2422C35.1479 37.2838 35.3625 37.3427 35.5756 37.4101C35.5083 37.5597 35.4407 37.7082 35.3726 37.856C35.2327 37.6462 35.086 37.4413 34.9317 37.2422ZM41.5941 39.2952C42.0853 38.6483 42.7116 38.143 43.4027 37.7849C43.5691 38.1575 43.7376 38.521 43.9079 38.8744C43.4856 39.6879 43.1616 40.5668 42.9345 41.5043C42.6219 40.8314 42.1753 40.109 41.5941 39.2952V39.2952ZM36.0051 38.9328C36.1813 38.568 36.3557 38.1934 36.528 37.8085C37.2006 38.165 37.8101 38.6628 38.29 39.2952C37.709 40.109 37.2625 40.8314 36.9501 41.5043C36.7282 40.5888 36.413 39.73 36.0051 38.9328V38.9328ZM39.5445 39.3087C39.6714 39.141 39.8038 38.9687 39.9423 38.792C40.0803 38.9687 40.2132 39.141 40.3401 39.3087C40.1892 39.5709 40.0556 39.8486 39.9423 40.1418C39.8288 39.8486 39.6952 39.5709 39.5445 39.3087ZM40.5816 41.8252C40.6515 41.2465 40.8057 40.7205 41.0224 40.2454C42.0107 41.6697 42.4968 42.7566 42.4614 43.8114C42.4356 44.565 42.1443 45.3496 41.5902 46.2724C40.8537 45.2522 40.3125 44.0532 40.5816 41.8252V41.8252ZM37.4234 43.8114C37.3873 42.7566 37.8739 41.6697 38.8617 40.2454C39.0789 40.7205 39.2329 41.2465 39.3028 41.8252C39.5716 44.0532 39.0304 45.2522 38.2941 46.2724C37.7402 45.3496 37.4487 44.565 37.4234 43.8114ZM38.8975 47.1916C39.2925 46.6824 39.6655 46.1357 39.9423 45.4663C40.2191 46.1357 40.5916 46.6824 40.9868 47.1916C40.6855 47.6176 40.3362 48.0767 39.9423 48.5724C39.5479 48.0767 39.1988 47.6176 38.8975 47.1916ZM42.2506 47.1187C42.3809 46.9136 42.5037 46.7126 42.6134 46.5178C42.6309 46.8544 42.6134 47.1869 42.5664 47.5153C42.4612 47.3797 42.3551 47.2482 42.2506 47.1187ZM37.271 46.5178C37.3804 46.7126 37.5037 46.9136 37.634 47.1187C37.5292 47.2482 37.4234 47.3797 37.3177 47.5153C37.2702 47.1869 37.2535 46.8544 37.271 46.5178V46.5178ZM40.5999 49.386C40.9868 48.8993 41.3361 48.4425 41.6444 48.0129C41.8487 48.2699 42.0461 48.5301 42.2261 48.8068C42.0229 49.3436 41.7504 49.8683 41.4306 50.3816C41.1388 50.0352 40.8596 49.7012 40.5999 49.386V49.386ZM37.6582 48.8068C37.8388 48.5301 38.0356 48.2699 38.2402 48.0129C38.5482 48.4425 38.8978 48.8993 39.2845 49.386C39.0247 49.7012 38.7456 50.0352 38.454 50.3816C38.1342 49.8683 37.8615 49.3436 37.6582 48.8068V48.8068ZM39.0559 51.2667C39.3701 50.8929 39.6616 50.541 39.9423 50.1995C40.2225 50.541 40.5142 50.8929 40.8282 51.2667C40.5496 51.6455 40.2511 52.017 39.9423 52.382C39.6335 52.017 39.3345 51.6455 39.0559 51.2667ZM42.1232 51.2011C42.2313 51.0363 42.3355 50.8702 42.4353 50.702C42.3799 50.8965 42.3108 51.1048 42.2279 51.3246C42.1923 51.2822 42.1588 51.243 42.1232 51.2011ZM37.449 50.702C37.5488 50.8702 37.6533 51.0363 37.7611 51.2011C37.7255 51.243 37.6922 51.2822 37.6561 51.3246C37.5738 51.1048 37.5047 50.8965 37.449 50.702ZM42.9902 52.2208C43.0315 52.1232 43.0712 52.0268 43.1084 51.9317C43.1084 52.0702 43.1048 52.2089 43.0984 52.3474L42.9902 52.2208ZM36.7757 51.9317C36.8133 52.0268 36.8528 52.1232 36.8941 52.2208L36.786 52.3474C36.7793 52.2089 36.7759 52.0702 36.7757 51.9317ZM40.6277 53.1669C40.9301 52.8119 41.2268 52.4471 41.509 52.0725C41.5936 52.1717 41.6834 52.2774 41.7698 52.3792C41.5717 52.7848 41.3398 53.2126 41.072 53.6557C40.9239 53.4945 40.7756 53.3314 40.6277 53.1669ZM38.1146 52.3792C38.201 52.2774 38.291 52.1717 38.3754 52.0725C38.6576 52.4471 38.9545 52.8119 39.2569 53.1669C39.1091 53.3314 38.9607 53.4945 38.8124 53.6557C38.5449 53.2126 38.3127 52.7848 38.1146 52.3792ZM41.8082 54.4534C42.067 54.0419 42.2994 53.6371 42.5053 53.2436L42.924 53.7363C42.8254 54.2294 42.6851 54.725 42.5073 55.2212C42.2816 54.9678 42.0466 54.7115 41.8082 54.4534V54.4534ZM36.9601 53.7363L37.3793 53.2436C37.5847 53.6371 37.8179 54.0419 38.0761 54.4534C37.838 54.7115 37.6027 54.9678 37.377 55.2212C37.1993 54.725 37.0592 54.2294 36.9601 53.7363V53.7363ZM39.3897 54.5537C39.5721 54.3555 39.7571 54.1535 39.9423 53.9479C40.1275 54.1535 40.312 54.3555 40.4949 54.5537C40.3213 54.8074 40.1366 55.0636 39.9423 55.3212C39.748 55.0636 39.5628 54.8074 39.3897 54.5537ZM44.2422 59.5563C44.8335 58.5356 44.2553 57.3658 43.2658 56.1172C43.4489 55.6718 43.6058 55.2269 43.7317 54.7826C44.8812 56.499 45.0868 58.1796 44.3462 59.6312C44.3111 59.6064 44.2768 59.5811 44.2422 59.5563ZM36.1529 54.7826C36.2788 55.2269 36.4351 55.6718 36.6186 56.1172C35.629 57.3658 35.0506 58.5356 35.6424 59.5563C35.6076 59.5811 35.573 59.6064 35.5382 59.6312C34.7978 58.1796 35.0032 56.499 36.1529 54.7826ZM40.6107 56.1606C40.8246 55.886 41.026 55.6119 41.2188 55.3385C41.5286 55.6762 41.8116 55.9914 42.0672 56.2882C41.9191 56.6044 41.7561 56.9206 41.5771 57.2374C41.2337 56.8814 40.913 56.5215 40.6107 56.1606V56.1606ZM37.8171 56.2882C38.0728 55.9914 38.3558 55.6762 38.6656 55.3385C38.8583 55.6119 39.0598 55.886 39.2739 56.1606C38.9713 56.5215 38.6504 56.8814 38.3075 57.2374C38.1282 56.9206 37.9652 56.6044 37.8171 56.2882V56.2882ZM38.8622 58.1431C39.2434 57.7592 39.6033 57.3681 39.9423 56.9736C40.2813 57.3681 40.6412 57.7592 41.0222 58.1431C40.6992 58.6337 40.3388 59.1243 39.9423 59.6147C39.5455 59.1243 39.1857 58.6337 38.8622 58.1431ZM42.3327 57.9796C42.4908 57.7117 42.6407 57.4435 42.7782 57.1756C43.2895 57.8809 43.5312 58.448 43.3886 58.9022C43.0199 58.6025 42.6686 58.294 42.3327 57.9796ZM37.1059 57.1756C37.2436 57.4435 37.3935 57.7117 37.5514 57.9796C37.2155 58.294 36.8644 58.6025 36.4958 58.9022C36.3531 58.448 36.5946 57.8809 37.1059 57.1756ZM40.6177 60.4101C41.0405 59.8963 41.4257 59.3811 41.7732 58.865C42.3946 59.4344 43.063 59.9797 43.775 60.4881C43.6251 60.668 43.4647 60.8444 43.2813 61.0141C42.9232 61.3446 42.5091 61.6406 42.0574 61.8987C41.5404 61.4035 41.0601 60.9074 40.6177 60.4101V60.4101ZM36.6036 61.0141C36.4199 60.8444 36.2589 60.668 36.1093 60.4881C36.8213 59.9797 37.49 59.4344 38.1109 58.865C38.459 59.3811 38.8438 59.8963 39.2669 60.4101C38.8245 60.9074 38.3436 61.4035 37.8272 61.8987C37.3752 61.6406 36.9614 61.3446 36.6036 61.0141V61.0141ZM42.8481 62.6296C43.2588 62.373 43.6406 62.0881 43.9806 61.7737C44.2244 61.5487 44.4432 61.3146 44.6387 61.0738C45.0907 61.3624 45.5599 61.6329 46.0428 61.8861C45.2375 62.4821 44.2641 62.8303 43.234 62.9675C43.1038 62.8551 42.9745 62.7422 42.8481 62.6296V62.6296ZM33.8415 61.8861C34.3244 61.6329 34.7937 61.3624 35.2456 61.0738C35.4412 61.3146 35.6599 61.5487 35.904 61.7737C36.244 62.0881 36.6255 62.373 37.0362 62.6296C36.9098 62.7422 36.7806 62.8551 36.6506 62.9675C35.6205 62.8303 34.6469 62.4821 33.8415 61.8861V61.8861ZM38.8121 62.3764C39.211 61.9835 39.5871 61.5895 39.9423 61.1945C40.2973 61.5895 40.6734 61.9835 41.0725 62.3764C40.7087 62.5231 40.3298 62.6471 39.9423 62.7471C39.5548 62.6471 39.1759 62.5231 38.8121 62.3764ZM44.268 63.8275C45.295 63.5692 46.2508 63.1042 47.0482 62.4022C47.4367 62.605 47.7994 62.8055 48.136 63.0021C47.5744 63.9601 46.9638 64.7501 46.3129 65.3649C45.5909 64.8555 44.9106 64.3427 44.268 63.8275V63.8275ZM31.748 63.0021C32.0847 62.8055 32.4476 62.605 32.8364 62.4022C33.6336 63.1042 34.5896 63.5694 35.6163 63.8275C34.974 64.3427 34.2937 64.8555 33.5716 65.3649C32.9205 64.7501 32.3096 63.9601 31.748 63.0021V63.0021ZM47.6198 66.2557C47.4687 66.1563 47.3214 66.0565 47.173 65.9568C47.8342 65.3032 48.4518 64.4969 49.0137 63.5428C49.6527 63.9596 50.1797 64.3579 50.6131 64.7356C49.9292 65.605 49.2435 66.2991 48.5702 66.8458C48.2645 66.6673 47.9488 66.4725 47.6198 66.2557V66.2557ZM29.2715 64.7356C29.7044 64.3579 30.2314 63.9596 30.8704 63.5428C31.4328 64.4969 32.0501 65.3032 32.711 65.9568C32.5632 66.0565 32.4157 66.1563 32.2648 66.2557C31.9358 66.4725 31.6198 66.6673 31.3144 66.8458C30.6408 66.2991 29.9551 65.605 29.2715 64.7356V64.7356ZM40.9551 66.666C40.4908 65.8499 40.3796 64.8785 40.6992 63.9627C41.1891 64.0376 41.6847 64.0786 42.1782 64.0786C42.4243 64.0786 42.6696 64.0688 42.9134 64.0489C43.7061 64.7175 44.5624 65.3815 45.4815 66.0392C44.5915 66.6513 43.6411 66.9633 42.6526 66.9633C42.0977 66.9633 41.5304 66.8649 40.9551 66.666V66.666ZM39.1854 63.9627C39.5045 64.8785 39.3933 65.8499 38.9292 66.666C37.3295 67.2191 35.7928 66.9949 34.4028 66.0392C35.322 65.3815 36.1782 64.7178 36.9707 64.0489C37.2147 64.0691 37.4601 64.0786 37.7064 64.0786C38.1997 64.0786 38.6953 64.0376 39.1854 63.9627V63.9627ZM49.543 67.3731C50.1467 66.8458 50.7537 66.2123 51.3561 65.4569C52.2979 66.4882 52.533 67.3157 52.5505 67.8523C52.5567 68.0326 52.5379 68.2021 52.5033 68.3638C51.6989 68.2517 50.7194 67.9587 49.543 67.3731V67.3731ZM27.3338 67.8523C27.3516 67.3157 27.5864 66.4882 28.5285 65.4569C29.1304 66.2123 29.7374 66.8458 30.3413 67.3731C29.1649 67.9587 28.1852 68.2517 27.3813 68.3636C27.3465 68.2021 27.3279 68.0326 27.3338 67.8523V67.8523ZM46.3679 66.6603C46.5928 66.8135 46.8209 66.9667 47.0526 67.1191C47.2584 67.2547 47.4591 67.3811 47.6578 67.5033C45.537 68.8394 43.6099 68.7501 42.3456 68.0381C42.3133 68.0197 42.2837 67.9988 42.2522 67.9799C42.385 67.9895 42.5182 67.999 42.65 67.999C43.9613 67.999 45.2178 67.5415 46.3679 66.6603V66.6603ZM32.2268 67.5028C32.4252 67.3808 32.6259 67.2547 32.8318 67.1191C33.0632 66.9667 33.2915 66.8135 33.5162 66.6603C34.6667 67.5415 35.9231 67.999 37.2346 67.999C37.3662 67.999 37.4993 67.9895 37.6324 67.9799C37.6004 67.9988 37.5713 68.0197 37.5388 68.0381C36.9772 68.3543 36.2842 68.5475 35.5018 68.5478C34.5236 68.5478 33.4053 68.2453 32.2268 67.5028V67.5028ZM16.8968 9.23769C15.8674 9.56295 15.2937 10.6663 15.6185 11.6979C15.6928 11.9338 15.6709 12.1849 15.5569 12.4047C15.4423 12.6243 15.2496 12.7869 15.0135 12.8613C14.7659 12.9395 14.5048 12.9119 14.2781 12.7832C14.0302 12.6427 13.7152 12.7298 13.5748 12.9778C13.4345 13.2263 13.5214 13.5415 13.7693 13.6823C14.0665 13.851 14.4006 13.937 14.7367 13.937C14.9346 13.937 15.1327 13.9073 15.3239 13.8466C15.8228 13.689 16.2304 13.3467 16.4721 12.8819C16.7133 12.4171 16.7598 11.8863 16.6024 11.3871C16.4489 10.8989 16.7203 10.377 17.2074 10.2233C17.4429 10.1489 17.6942 10.1711 17.9139 10.285C18.1665 10.4173 18.4781 10.3189 18.6097 10.0654C18.741 9.81251 18.6427 9.50042 18.3902 9.36866C18.1066 9.22089 17.7984 9.14597 17.4878 9.14597C17.2899 9.14597 17.091 9.17646 16.8968 9.23769V9.23769ZM61.2775 9.6172C61.0956 10.1287 61.1351 10.6981 61.3856 11.1792C61.627 11.6439 62.0344 11.9865 62.5333 12.1438C63.0325 12.3009 63.5623 12.2544 64.0254 12.0126C64.4797 11.7775 65.0403 11.9542 65.2758 12.4076C65.3898 12.6269 65.4118 12.8783 65.3369 13.1152C65.2513 13.3872 65.4022 13.6774 65.6741 13.7634C65.7257 13.7797 65.7778 13.7872 65.8294 13.7872C66.0487 13.7872 66.252 13.6464 66.3214 13.4257C66.4787 12.9258 66.4323 12.3947 66.1911 11.9304C65.6932 10.972 64.5089 10.5976 63.5495 11.096C63.3302 11.2104 63.0794 11.2326 62.8434 11.1582C62.6078 11.0838 62.4149 10.9218 62.3009 10.7017C62.1807 10.471 62.1623 10.2088 62.2498 9.9639C62.3452 9.69496 62.2051 9.39941 61.9366 9.30382C61.8793 9.28341 61.8208 9.27385 61.7632 9.27385C61.5512 9.27359 61.3526 9.40587 61.2775 9.6172ZM11.913 13.7125C10.9554 14.2119 10.5818 15.398 11.0805 16.3577C11.1945 16.577 11.2164 16.8282 11.1421 17.0645C11.0678 17.3009 10.9061 17.4939 10.6866 17.6086C10.4557 17.7285 10.1938 17.7463 9.94901 17.6595C9.68021 17.5642 9.38587 17.7042 9.29016 17.9734C9.19497 18.2421 9.33504 18.5376 9.60359 18.6332C9.81539 18.7087 10.037 18.7461 10.2583 18.7461C10.5705 18.7461 10.8819 18.6715 11.1631 18.525C11.6271 18.2832 11.9689 17.8745 12.1263 17.3753C12.2837 16.8757 12.2372 16.3445 11.9955 15.8803C11.76 15.4266 11.9364 14.8655 12.3894 14.6291C12.6087 14.5152 12.86 14.493 13.096 14.5674C13.3687 14.6531 13.6579 14.5018 13.7433 14.2297C13.8287 13.9577 13.6778 13.6676 13.4061 13.5818C13.2119 13.5206 13.013 13.4903 12.8151 13.4903C12.5042 13.4903 12.1962 13.565 11.913 13.7125V13.7125ZM66.2213 13.7892C65.954 14.2612 65.8939 14.8286 66.057 15.346C66.2143 15.8454 66.5564 16.2539 67.0205 16.4957C67.4843 16.7375 68.0152 16.7837 68.5126 16.6259C69.0015 16.4729 69.5218 16.7445 69.6753 17.2325C69.7493 17.4681 69.7277 17.7195 69.6129 17.9401C69.4816 18.1933 69.5798 18.5051 69.8326 18.6366C69.9087 18.6764 69.9903 18.6952 70.0702 18.6952C70.2568 18.6952 70.4366 18.5939 70.5284 18.4167C70.7701 17.9514 70.8168 17.4203 70.6595 16.9214C70.3349 15.8909 69.2331 15.315 68.2025 15.6403C67.9665 15.7152 67.716 15.6932 67.4967 15.5788C67.2774 15.4646 67.1157 15.2716 67.0411 15.0352C66.963 14.787 66.9905 14.5255 67.1188 14.2992C67.2596 14.0509 67.1724 13.7355 66.9245 13.5947C66.8443 13.549 66.7568 13.5275 66.6707 13.5275C66.4909 13.5275 66.3162 13.6216 66.2213 13.7892V13.7892ZM70.3672 18.7572C70.0217 19.175 69.8644 19.7237 69.9351 20.2621C70.0034 20.7816 70.2696 21.243 70.6847 21.5618C71.0995 21.8804 71.6134 22.0176 72.1315 21.9499C72.6394 21.8817 73.1045 22.2418 73.1713 22.7489C73.2038 22.9941 73.1383 23.2377 72.9874 23.4348C72.814 23.6614 72.8569 23.9859 73.0829 24.1595C73.1765 24.2313 73.2869 24.2659 73.3966 24.2659C73.5514 24.2659 73.7046 24.1962 73.8062 24.0637C74.1251 23.6475 74.2628 23.1323 74.1942 22.6136C74.0536 21.5427 73.0684 20.7863 71.997 20.9248C71.7512 20.9581 71.5087 20.8925 71.3127 20.7418C71.1166 20.591 70.9904 20.3729 70.9584 20.1272C70.9241 19.8689 70.9964 19.6162 71.162 19.416C71.3441 19.1962 71.3132 18.8704 71.0939 18.6885C70.9974 18.6087 70.881 18.5699 70.7652 18.5699C70.6166 18.5699 70.4693 18.6337 70.3672 18.7572V18.7572ZM7.78074 18.9861C6.92453 19.6441 6.76226 20.8777 7.41932 21.7357C7.56998 21.9323 7.63525 22.1757 7.60301 22.4214C7.5705 22.6668 7.44487 22.8851 7.24829 23.036C7.04217 23.1943 6.78677 23.2576 6.53112 23.2147C6.25148 23.1675 5.98397 23.3568 5.93651 23.6382C5.8893 23.9195 6.0784 24.1864 6.35959 24.2336C6.4669 24.252 6.57498 24.2608 6.68281 24.2608C7.11105 24.2608 7.5331 24.1195 7.87672 23.8559C8.2918 23.5371 8.5575 23.0755 8.62586 22.5562C8.69422 22.0367 8.55646 21.5218 8.23786 21.1066C7.927 20.7008 8.00391 20.1174 8.40867 19.8061C8.60524 19.6552 8.84851 19.5899 9.0941 19.6224C9.37606 19.6601 9.63557 19.4602 9.67271 19.1773C9.71012 18.8944 9.51098 18.6348 9.2285 18.5976C9.14182 18.5862 9.05487 18.5805 8.9687 18.5805C8.54047 18.5805 8.12617 18.7208 7.78074 18.9861V18.9861ZM73.5888 24.3708C73.1757 24.7222 72.9255 25.2353 72.902 25.7778C72.8791 26.3012 73.0614 26.8021 73.4146 27.1881C73.768 27.5743 74.2507 27.7993 74.7723 27.8213C75.2829 27.8443 75.6802 28.2783 75.6577 28.7896C75.6469 29.0366 75.5403 29.2652 75.3574 29.4334C75.1477 29.6261 75.1335 29.9532 75.3262 30.1632C75.4281 30.2746 75.5671 30.3309 75.7065 30.3309C75.8311 30.3309 75.9559 30.2857 76.0552 30.195C76.4409 29.84 76.6661 29.3569 76.6886 28.8345C76.7358 27.7549 75.8968 26.8375 74.8177 26.789C74.5703 26.7786 74.3423 26.6722 74.1754 26.4895C74.0079 26.3071 73.9221 26.0702 73.9329 25.8225C73.9442 25.5626 74.0593 25.3264 74.2569 25.158C74.4741 24.973 74.5004 24.6473 74.3157 24.4297C74.2138 24.3096 74.0686 24.2479 73.9223 24.2479C73.8044 24.2479 73.6858 24.2882 73.5888 24.3708V24.3708ZM5.98422 24.2639C5.4613 24.2866 4.9789 24.5119 4.62573 24.8981C3.89644 25.6951 3.95062 26.938 4.74647 27.6689C4.92885 27.836 5.03514 28.0647 5.04623 28.3122C5.0568 28.5594 4.97066 28.7963 4.80375 28.979C4.62781 29.1709 4.38789 29.2781 4.12811 29.2797C3.84305 29.282 3.61397 29.5153 3.61629 29.8005C3.61887 30.0842 3.84845 30.3133 4.1317 30.3133H4.13583C4.67757 30.3089 5.19818 30.0772 5.56451 29.677C5.91767 29.291 6.09978 28.7904 6.07708 28.2672C6.05412 27.7435 5.82892 27.2607 5.44377 26.907C5.06739 26.5613 5.04158 25.9731 5.38649 25.5962C5.5534 25.4138 5.78172 25.3073 6.02937 25.2962C6.31418 25.2838 6.53472 25.0425 6.52208 24.7573C6.50996 24.4793 6.28529 24.2636 6.00487 24.2636C5.99791 24.2636 5.99118 24.2636 5.98422 24.2639V24.2639ZM75.7872 30.4595C75.3195 30.7344 74.9841 31.1956 74.867 31.7257C74.754 32.237 74.8464 32.7619 75.1273 33.2034C75.4088 33.6455 75.8452 33.9508 76.3547 34.0635C76.8536 34.1748 77.1694 34.6714 77.059 35.1705C77.0051 35.4123 76.8609 35.619 76.6519 35.7523C76.4115 35.9055 76.3408 36.225 76.494 36.4658C76.5923 36.6203 76.759 36.7051 76.9298 36.7051C77.0244 36.7051 77.1204 36.6787 77.2066 36.6237C77.6479 36.3418 77.9534 35.9052 78.0664 35.3942C78.3001 34.3394 77.6328 33.2897 76.5782 33.0546C76.3367 33.0014 76.1306 32.857 75.9977 32.648C75.8649 32.439 75.821 32.191 75.8746 31.9489C75.9309 31.6949 76.0854 31.4826 76.3093 31.3506C76.5549 31.2064 76.6375 30.8897 76.4935 30.6435C76.3973 30.4797 76.2247 30.3882 76.0478 30.388C75.959 30.388 75.8692 30.411 75.7872 30.4595V30.4595ZM3.77132 30.4081C3.26053 30.5218 2.82429 30.8274 2.54361 31.2692C1.96369 32.1806 2.2325 33.3951 3.14289 33.9767C3.35159 34.1097 3.49606 34.3161 3.54947 34.5579C3.60312 34.7997 3.55954 35.048 3.42668 35.257C3.28712 35.4766 3.06911 35.6234 2.81346 35.6706C2.5333 35.722 2.34807 35.9915 2.39967 36.2723C2.44507 36.5214 2.66203 36.6958 2.90607 36.6958C2.93729 36.6958 2.9685 36.6926 3.00023 36.6867C3.53321 36.5888 4.00581 36.27 4.29706 35.8122C4.57799 35.3704 4.67037 34.8455 4.55686 34.3339C4.44361 33.8227 4.13841 33.3863 3.69754 33.105C3.26672 32.8299 3.13979 32.2556 3.41427 31.8241C3.54662 31.6154 3.75328 31.4707 3.995 31.417C4.27335 31.3552 4.44875 31.079 4.38709 30.8005C4.33343 30.5595 4.11984 30.3957 3.88302 30.3957C3.84613 30.3957 3.80872 30.3999 3.77132 30.4081V30.4081ZM2.65764 36.8438C2.17446 37.0445 1.79784 37.4215 1.59791 37.9053C1.18515 38.9038 1.66006 40.0535 2.65764 40.4674C2.88621 40.5622 3.06421 40.7404 3.15888 40.9693C3.25356 41.198 3.25356 41.4501 3.15888 41.6787C3.05956 41.9195 2.87049 42.1019 2.62722 42.1929C2.36022 42.2926 2.22427 42.5902 2.32359 42.8576C2.40098 43.0655 2.59781 43.1939 2.80729 43.1939C2.86714 43.1939 2.92777 43.1833 2.9871 43.1614C3.49505 42.9718 3.9047 42.5757 4.11237 42.0743C4.31255 41.5904 4.31255 41.0574 4.11237 40.5738C3.91218 40.0896 3.53578 39.713 3.05285 39.5128C2.58076 39.3164 2.35582 38.7729 2.55136 38.3003C2.64578 38.072 2.82406 37.8935 3.05314 37.7984C3.31653 37.6891 3.44136 37.3868 3.33224 37.1233C3.24969 36.9244 3.05776 36.8045 2.85525 36.8045C2.78947 36.8045 2.72239 36.8172 2.65764 36.8438V36.8438ZM76.897 36.8378C76.3888 37.027 75.9786 37.4233 75.7715 37.9247C75.571 38.4086 75.571 38.9418 75.7715 39.4254C75.9716 39.9093 76.3483 40.286 76.831 40.4859C77.3028 40.6823 77.5277 41.2261 77.3325 41.6986C77.2378 41.9275 77.0595 42.1058 76.8307 42.2006C76.5676 42.3099 76.4425 42.6124 76.5516 42.8759C76.6339 43.0748 76.8261 43.1947 77.0283 43.1947C77.0941 43.1947 77.1612 43.1821 77.2257 43.1552C77.7094 42.9545 78.0857 42.5775 78.2857 42.0939C78.6987 41.0956 78.2238 39.9465 77.2259 39.5311C76.9974 39.4368 76.8194 39.2585 76.7247 39.0299C76.63 38.801 76.63 38.5491 76.7247 38.32C76.8237 38.0795 77.0128 37.8973 77.2563 37.8064C77.5236 37.7072 77.6596 37.4096 77.5603 37.1422C77.4831 36.9342 77.286 36.8053 77.0768 36.8053C77.017 36.8053 76.9563 36.8156 76.897 36.8378V36.8378ZM2.67726 43.3755C2.23613 43.6571 1.93069 44.0938 1.81718 44.6053C1.58397 45.6606 2.25134 46.7095 3.30516 46.9438C3.54662 46.9976 3.75325 47.1422 3.88585 47.3512C4.01897 47.56 4.06258 47.808 4.00892 48.0498C3.95268 48.3043 3.79842 48.5166 3.5745 48.6487C3.32865 48.7933 3.24635 49.1098 3.39081 49.356C3.48678 49.5195 3.65909 49.611 3.83606 49.611C3.92506 49.611 4.01484 49.588 4.09687 49.54C4.56406 49.2648 4.89919 48.8032 5.01656 48.2735C5.12981 47.7623 5.03719 47.2373 4.75626 46.7958C4.47533 46.354 4.03912 46.0481 3.52859 45.935C3.03018 45.8242 2.71416 45.3279 2.82483 44.8287C2.87823 44.5872 3.02269 44.3803 3.23191 44.247C3.47208 44.0935 3.54276 43.7739 3.38952 43.5334C3.29124 43.3789 3.12459 43.2942 2.95407 43.2942C2.85913 43.2942 2.76317 43.3205 2.67726 43.3755ZM76.8833 43.3125C76.3504 43.4107 75.8778 43.7295 75.5868 44.187C75.3058 44.6288 75.2132 45.1537 75.3267 45.6648C75.44 46.1763 75.7457 46.6129 76.1863 46.8934C76.6168 47.1688 76.744 47.7437 76.4698 48.1749C76.3369 48.3839 76.1306 48.5285 75.8883 48.582C75.61 48.6437 75.4348 48.9199 75.4965 49.1982C75.5499 49.4395 75.7629 49.6032 75.9995 49.6032C76.0367 49.6032 76.0743 49.5994 76.112 49.5911C76.623 49.4774 77.0593 49.1716 77.34 48.7303C77.9196 47.8189 77.6513 46.6044 76.7407 46.022C76.5322 45.8893 76.3875 45.6826 76.3341 45.441C76.2804 45.1992 76.324 44.9509 76.4569 44.7419C76.5964 44.5226 76.8145 44.3756 77.0699 44.3286C77.3505 44.2769 77.536 44.0077 77.4841 43.7272C77.4385 43.4784 77.222 43.3037 76.9782 43.3035C76.947 43.3035 76.9153 43.3066 76.8833 43.3125ZM3.82835 49.8045C3.44268 50.1587 3.2177 50.6418 3.19526 51.1652C3.14805 52.2448 3.98726 53.162 5.06585 53.2095C5.31324 53.2203 5.54128 53.327 5.70845 53.5094C5.87562 53.6921 5.96151 53.929 5.95093 54.1762C5.93958 54.4364 5.82428 54.6725 5.62667 54.8412C5.40945 55.0267 5.38367 55.3527 5.56838 55.57C5.67079 55.6896 5.81525 55.7514 5.96126 55.7514C6.07967 55.7514 6.19859 55.7108 6.29585 55.6279C6.70835 55.276 6.95808 54.7635 6.98182 54.2212C7.00452 53.6983 6.82237 53.1974 6.46921 52.8114C6.11578 52.4249 5.63336 52.1999 5.11123 52.1772C4.6007 52.1547 4.2037 51.7209 4.22614 51.2099C4.23672 50.9627 4.34325 50.7338 4.52616 50.5658C4.73615 50.3731 4.75006 50.0461 4.55762 49.8358C4.45597 49.7247 4.31693 49.6684 4.17736 49.6684C4.05276 49.6684 3.92767 49.7136 3.82835 49.8045V49.8045ZM75.748 49.6862C75.2055 49.69 74.6849 49.9218 74.3191 50.3217C73.9656 50.7082 73.784 51.2089 73.8067 51.7323C73.8297 52.2557 74.0546 52.7385 74.44 53.0917C74.8164 53.4376 74.842 54.0259 74.4973 54.4028C74.3302 54.5855 74.1018 54.6922 73.8542 54.7027C73.5694 54.7154 73.3488 54.9564 73.3615 55.2414C73.3736 55.5191 73.6017 55.7359 73.8764 55.7359C73.8839 55.7359 73.8916 55.7356 73.8993 55.7354C74.4223 55.7124 74.9049 55.4871 75.2581 55.1011C75.9866 54.3041 75.9329 53.0615 75.1376 52.3298C74.9547 52.1624 74.8484 51.9343 74.8376 51.6871C74.827 51.4396 74.9129 51.2027 75.0804 51.02C75.2555 50.8281 75.4954 50.7214 75.7552 50.7193C76.0403 50.7175 76.2693 50.4845 76.2673 50.1993C76.2647 49.9148 76.0348 49.6862 75.7516 49.6862H75.748ZM6.07733 55.9358C5.759 56.3515 5.62126 56.8664 5.68937 57.3854C5.83022 58.4568 6.81516 59.2135 7.88627 59.0737C8.13108 59.0412 8.37511 59.1062 8.57091 59.2571C8.76723 59.408 8.89338 59.6263 8.92562 59.872C8.95942 60.1298 8.88693 60.3827 8.72131 60.5835C8.5397 60.8036 8.57093 61.1291 8.79046 61.311C8.88669 61.3908 9.00302 61.4293 9.11885 61.4293C9.26744 61.4293 9.41475 61.3652 9.51664 61.2417C9.86181 60.8232 10.0195 60.2748 9.94851 59.7369C9.88041 59.2176 9.61416 58.7562 9.19934 58.4374C8.78426 58.1183 8.26936 57.9809 7.75161 58.0494C7.24263 58.1155 6.77904 57.7572 6.71222 57.2508C6.67998 57.0054 6.7455 56.7615 6.89616 56.5641C7.06952 56.3378 7.0267 56.0131 6.80046 55.84C6.70707 55.7679 6.59666 55.7333 6.48728 55.7333C6.33224 55.7333 6.17872 55.803 6.07733 55.9358ZM72.0071 56.1433C71.5923 56.4621 71.3261 56.9235 71.258 57.4428C71.1896 57.9623 71.3276 58.4772 71.646 58.8918C71.9566 59.2982 71.8797 59.8818 71.4746 60.1934C71.2788 60.344 71.034 60.4091 70.7895 60.3771C70.5054 60.3391 70.2477 60.5388 70.2109 60.8219C70.174 61.1048 70.3726 61.3645 70.6551 61.4014C70.7417 61.4128 70.8287 61.4185 70.9146 61.4185C71.3436 61.4185 71.7579 61.2784 72.1031 61.0128C72.9588 60.3551 73.121 59.1215 72.4645 58.263C72.3138 58.0664 72.2486 57.8233 72.2808 57.5779C72.3131 57.3322 72.4387 57.1142 72.6353 56.963C72.8414 56.8044 73.0963 56.7413 73.3524 56.7845C73.6336 56.8328 73.8996 56.6429 73.9471 56.3613C73.9945 56.08 73.8052 55.8131 73.5243 55.7656C73.4167 55.7475 73.3083 55.7384 73.2005 55.7384C72.772 55.7384 72.3502 55.8792 72.0071 56.1433V56.1433ZM68.7208 61.4743C68.2564 61.7158 67.9146 62.124 67.7573 62.6234C67.6002 63.1233 67.6466 63.6544 67.8883 64.1182C68.1238 64.5721 67.9471 65.134 67.4941 65.3699C67.2749 65.4846 67.0236 65.506 66.7873 65.4316C66.5154 65.3456 66.2262 65.4972 66.1405 65.7693C66.0549 66.0416 66.2058 66.3317 66.4774 66.4172C66.672 66.4784 66.8708 66.5089 67.069 66.5089C67.3796 66.5089 67.6879 66.434 67.9709 66.2865C68.9277 65.7876 69.3015 64.601 68.8038 63.6413C68.6893 63.4214 68.6674 63.1706 68.7417 62.9342C68.816 62.6978 68.9777 62.5051 69.1973 62.3906C69.4276 62.2705 69.6892 62.2521 69.9343 62.3397C70.2023 62.4348 70.4977 62.295 70.5932 62.0261C70.6886 61.7571 70.5485 61.4619 70.28 61.366C70.0679 61.2903 69.8461 61.2529 69.6247 61.2529C69.3126 61.2529 69.0015 61.3275 68.7208 61.4743V61.4743ZM9.35491 61.5828C9.1137 62.048 9.06727 62.5789 9.22463 63.0783C9.5489 64.1086 10.6507 64.6827 11.6808 64.3582C11.9168 64.2838 12.1673 64.3057 12.3869 64.4202C12.6064 64.5346 12.7681 64.7276 12.8424 64.9637C12.9209 65.212 12.893 65.4735 12.7648 65.7C12.6245 65.9483 12.7114 66.2637 12.9593 66.4043C13.0398 66.4503 13.127 66.4717 13.2131 66.4717C13.3929 66.4717 13.5676 66.3774 13.6628 66.2095C13.9295 65.7372 13.9896 65.1699 13.8269 64.6532C13.6695 64.1533 13.3274 63.7451 12.8633 63.5033C12.3995 63.2615 11.8686 63.215 11.3707 63.3728C10.8836 63.5268 10.3623 63.2548 10.2085 62.7673C10.1342 62.5312 10.1564 62.2793 10.2704 62.0589C10.402 61.8055 10.3032 61.4936 10.0501 61.3624C9.97429 61.3229 9.89305 61.304 9.81282 61.304C9.62656 61.304 9.44649 61.4055 9.35491 61.5828V61.5828ZM64.5602 66.1524C64.061 66.3097 63.6531 66.6525 63.4117 67.117C63.1702 67.5818 63.124 68.113 63.2814 68.6116C63.4346 69.0999 63.1633 69.622 62.6767 69.7757C62.4407 69.8506 62.1899 69.8284 61.9696 69.7137C61.7171 69.5822 61.4054 69.6804 61.2739 69.9335C61.1426 70.1867 61.2406 70.4988 61.4937 70.6306C61.7772 70.7781 62.0852 70.853 62.3963 70.853C62.5939 70.853 62.7928 70.8228 62.9868 70.7613C64.0156 70.4363 64.5896 69.3332 64.2658 68.3013C64.191 68.0649 64.213 67.8138 64.327 67.5942C64.4415 67.3744 64.6342 67.2126 64.8705 67.138C65.1179 67.0594 65.3785 67.0873 65.605 67.2157C65.8524 67.3568 66.1676 67.2697 66.3082 67.0215C66.4491 66.7737 66.3619 66.458 66.1142 66.3172C65.8176 66.1482 65.4827 66.0622 65.1468 66.0622C64.9492 66.0622 64.7511 66.0919 64.5602 66.1524V66.1524ZM13.5622 66.5738C13.4048 67.0737 13.4515 67.6046 13.6927 68.0688C14.1911 69.0278 15.376 69.4014 16.3339 68.903C16.5534 68.7883 16.8039 68.7661 17.0402 68.8407C17.2757 68.9151 17.4684 69.0771 17.583 69.2972C17.7029 69.5277 17.721 69.7902 17.6341 70.0359C17.5386 70.3045 17.6792 70.6001 17.9477 70.6954C18.0045 70.7158 18.0628 70.7254 18.1203 70.7254C18.3324 70.7254 18.5313 70.5934 18.6066 70.3813C18.7877 69.87 18.7485 69.3009 18.4983 68.8201C18.2571 68.3553 17.8492 68.0127 17.3503 67.8551C16.8513 67.6976 16.3209 67.7443 15.8574 67.9861C15.4044 68.222 14.8436 68.0453 14.6083 67.5921C14.4937 67.372 14.4723 67.1207 14.5466 66.8838C14.632 66.6115 14.4811 66.3213 14.2092 66.2358C14.1576 66.2196 14.1055 66.2118 14.0541 66.2118C13.8346 66.2118 13.6313 66.3529 13.5622 66.5738V66.5738ZM59.6509 70.0361C59.1322 70.1046 58.6717 70.3709 58.3531 70.7869C58.0347 71.2023 57.897 71.7174 57.9656 72.2357C58.0319 72.7431 57.6741 73.2101 57.1682 73.2768C56.9221 73.3099 56.6796 73.244 56.4825 73.0929C56.2568 72.9193 55.9328 72.9621 55.7592 73.1887C55.5861 73.415 55.6286 73.7395 55.8546 73.9131C56.2006 74.1784 56.6154 74.3187 57.0439 74.3187C57.1298 74.3187 57.2162 74.313 57.3026 74.3017C58.3727 74.1603 59.1288 73.1737 58.9887 72.1011C58.9562 71.8556 59.0212 71.612 59.1719 71.4154C59.3223 71.2188 59.5403 71.093 59.7859 71.0607C60.0439 71.0261 60.2956 71.0995 60.4958 71.2653C60.7154 71.4469 61.0404 71.4162 61.2223 71.1961C61.4036 70.9762 61.3729 70.6504 61.1534 70.4688C60.8013 70.1774 60.3565 70.0193 59.905 70.0193C59.8204 70.0193 59.7356 70.025 59.6509 70.0361V70.0361ZM18.5705 70.7577C18.5032 71.2772 18.6407 71.7921 18.9588 72.2075C19.6156 73.0647 20.8471 73.2269 21.7043 72.5692C21.9004 72.4183 22.1437 72.3527 22.389 72.3853C22.6341 72.4175 22.8521 72.5434 23.0027 72.74C23.1609 72.9466 23.2243 73.2016 23.181 73.4584C23.1335 73.7398 23.3231 74.0064 23.6041 74.0537C23.633 74.0586 23.6621 74.0611 23.6902 74.0611C23.9379 74.0611 24.1564 73.8826 24.1987 73.6305C24.2887 73.0949 24.1512 72.541 23.8213 72.1109C23.503 71.6955 23.0422 71.4289 22.5234 71.3607C22.0049 71.2922 21.491 71.4307 21.0762 71.7492C20.6707 72.0602 20.0882 71.9835 19.7773 71.5782C19.6269 71.3818 19.5619 71.138 19.5939 70.8915C19.6305 70.6086 19.4316 70.3492 19.1489 70.3123C19.1264 70.3092 19.1042 70.3079 19.082 70.3079C18.8272 70.3079 18.6046 70.4975 18.5705 70.7577V70.7577ZM52.7352 73.5207C52.3493 73.8746 52.1246 74.358 52.1019 74.8804C52.0794 75.3914 51.6473 75.7897 51.136 75.7673C50.8891 75.7562 50.6603 75.6495 50.4929 75.4665C50.3004 75.2565 49.9744 75.242 49.7639 75.4348C49.5541 75.6278 49.5399 75.9546 49.7324 76.1649C50.0866 76.5513 50.5688 76.7764 51.0912 76.7994C51.12 76.8009 51.1484 76.8014 51.1773 76.8014C52.2175 76.8014 53.0863 75.9773 53.1327 74.9256C53.1436 74.6781 53.2499 74.4497 53.4322 74.2823C53.6146 74.1151 53.8494 74.0281 54.0983 74.0397C54.3579 74.0508 54.5937 74.1663 54.7621 74.3644C54.9471 74.5815 55.2729 74.6081 55.4893 74.4228C55.7063 74.2376 55.7326 73.9116 55.5476 73.6943C55.1963 73.2812 54.6842 73.0306 54.143 73.0074C54.1138 73.0061 54.0847 73.0055 54.0558 73.0055C53.5656 73.0055 53.0992 73.1864 52.7352 73.5207V73.5207ZM24.7211 73.4677C24.4365 73.4801 24.2162 73.7214 24.2289 74.0066C24.2521 74.53 24.477 75.0134 24.8622 75.3671C25.658 76.0969 26.8992 76.0427 27.629 75.2459C27.7961 75.063 28.0242 74.9566 28.2711 74.9457C28.5197 74.9346 28.755 75.0212 28.9374 75.1883C29.1288 75.364 29.2354 75.6045 29.2372 75.8649C29.2397 76.1488 29.4701 76.3775 29.7534 76.3775H29.7573C30.0423 76.3752 30.2717 76.1421 30.2693 75.8567C30.265 75.3141 30.0335 74.793 29.6342 74.4264C29.2485 74.0725 28.7483 73.887 28.2262 73.9134C27.7038 73.9361 27.2214 74.1616 26.8682 74.5476C26.5228 74.9245 25.9359 74.9501 25.5592 74.6047C25.3771 74.4376 25.2706 74.2092 25.2597 73.9606C25.2474 73.6827 25.0203 73.4672 24.7422 73.4672C24.7353 73.4672 24.7283 73.4672 24.7211 73.4677V73.4677ZM46.7283 75.2358C46.2871 75.5174 45.982 75.954 45.8692 76.4653C45.7583 76.9647 45.2622 77.2809 44.7638 77.1703C44.5226 77.1166 44.3162 76.9717 44.1829 76.7627C44.0296 76.5221 43.711 76.4511 43.4706 76.6048C43.2304 76.758 43.1597 77.0776 43.3127 77.3181C43.5942 77.7599 44.0301 78.0658 44.5407 78.1792C44.6826 78.211 44.8245 78.2257 44.9643 78.2257C45.8618 78.2257 46.6734 77.6023 46.8764 76.689C46.9298 76.447 47.074 76.2406 47.2827 76.1075C47.4911 75.9742 47.7393 75.9305 47.9808 75.9843C48.2344 76.0406 48.4466 76.1951 48.578 76.4196C48.7224 76.6655 49.0382 76.7482 49.2843 76.6035C49.5301 76.4591 49.6122 76.1426 49.468 75.8964C49.1935 75.4283 48.7327 75.0927 48.2042 74.9754C48.062 74.9439 47.9189 74.9284 47.7765 74.9284C47.4081 74.9284 47.0466 75.0328 46.7283 75.2358V75.2358ZM34.2847 75.4353C33.7739 75.5487 33.3379 75.8548 33.0573 76.2966C32.7828 76.7275 32.2088 76.8546 31.7782 76.5803C31.5698 76.4472 31.4253 76.2405 31.3716 75.9982C31.3097 75.7197 31.0345 75.5446 30.7559 75.606C30.4778 75.6678 30.3026 75.9437 30.3643 76.2225C30.4775 76.734 30.7829 77.1706 31.2238 77.4519C31.5491 77.6594 31.9129 77.7581 32.2725 77.7581C32.92 77.7581 33.5543 77.4375 33.9276 76.8515C34.0605 76.6425 34.2666 76.4976 34.5081 76.4441C34.7495 76.3904 34.9972 76.4343 35.2062 76.5674C35.4252 76.7071 35.572 76.9254 35.6192 77.1814C35.6708 77.4623 35.9414 77.6475 36.22 77.5961C36.5002 77.5442 36.6854 77.2747 36.6341 76.9944C36.5358 76.4604 36.2172 75.9871 35.7606 75.696C35.4422 75.4929 35.0805 75.388 34.7124 75.388C34.57 75.388 34.4268 75.4038 34.2847 75.4353V75.4353ZM40.5152 75.8807C40.0315 76.0811 39.6554 76.4583 39.4558 76.9417C39.26 77.4145 38.7169 77.6405 38.2454 77.4442C38.017 77.3496 37.8391 77.1709 37.7439 76.9414C37.6347 76.6782 37.3332 76.5529 37.0693 76.6624C36.8061 76.7717 36.6815 77.0742 36.7906 77.338C36.9916 77.8216 37.3677 78.1986 37.8504 78.3988C38.0944 78.5003 38.3475 78.5481 38.5967 78.5481C39.3652 78.5481 40.0963 78.0919 40.4092 77.3375C40.5036 77.1086 40.6816 76.9301 40.9102 76.8353C41.1385 76.7404 41.3903 76.7405 41.6189 76.8355C41.8588 76.935 42.0412 77.1243 42.132 77.3682C42.2313 77.6356 42.528 77.7718 42.7955 77.672C43.0625 77.5728 43.1984 77.2752 43.0989 77.0076C42.9098 76.4991 42.5143 76.0881 42.0136 75.8807C41.7721 75.7804 41.5183 75.7303 41.2644 75.7303C41.0106 75.7303 40.7567 75.7804 40.5152 75.8807Z" fill="black"/>
</svg>
